<svg width="57" height="7" viewBox="0 0 57 7" fill="none" xmlns="http://www.w3.org/2000/svg">
<path d="M57 6.1123L57 0.112305L54 0.112305L54 6.1123L57 6.1123Z" fill="#004A50"/>
<path d="M51 6.1123L51 0.112304L48 0.112304L48 6.1123L51 6.1123Z" fill="#004A50"/>
<path d="M45 0.112304L45 6.1123L42 6.1123L42 0.112304L45 0.112304Z" fill="#004A50"/>
<path d="M39 6.1123L39 0.112304L36 0.112304L36 6.1123L39 6.1123Z" fill="#004A50"/>
<path d="M33 0.112304L33 6.1123L30 6.1123L30 0.112304L33 0.112304Z" fill="#004A50"/>
<path d="M27 6.1123L27 0.112303L24 0.112303L24 6.1123L27 6.1123Z" fill="#004A50"/>
<path d="M21 0.112303L21 6.1123L18 6.1123L18 0.112303L21 0.112303Z" fill="#004A50"/>
<path d="M15 6.1123L15 0.112303L12 0.112303L12 6.1123L15 6.1123Z" fill="#004A50"/>
<path d="M9 0.112303L9 6.1123L6 6.1123L6 0.112302L9 0.112303Z" fill="#004A50"/>
<path d="M3 6.1123L3 0.112302L0 0.112302L-2.62268e-07 6.1123L3 6.1123Z" fill="#004A50"/>
</svg>
