<svg xmlns="http://www.w3.org/2000/svg" viewBox="0 0 980 980" fill="none" shape-rendering="auto"><metadata xmlns:rdf="http://www.w3.org/1999/02/22-rdf-syntax-ns#" xmlns:xsi="http://www.w3.org/2001/XMLSchema-instance" xmlns:dc="http://purl.org/dc/elements/1.1/" xmlns:dcterms="http://purl.org/dc/terms/"><rdf:RDF><rdf:Description><dc:title>Lorelei</dc:title><dc:creator>Lisa Wischofsky</dc:creator><dc:source xsi:type="dcterms:URI">https://www.figma.com/community/file/1198749693280469639</dc:source><dcterms:license xsi:type="dcterms:URI">https://creativecommons.org/publicdomain/zero/1.0/</dcterms:license><dc:rights>Remix of „Lorelei” (https://www.figma.com/community/file/1198749693280469639) by „Lisa Wischofsky”, licensed under „CC0 1.0” (https://creativecommons.org/publicdomain/zero/1.0/)</dc:rights></rdf:Description></rdf:RDF></metadata><mask id="viewboxMask"><rect width="980" height="980" rx="0" ry="0" x="0" y="0" fill="#fff" /></mask><g mask="url(#viewboxMask)"><g transform="translate(10 -60)"><path d="m723 184 8 9c10 13 17 29 21 45 5 23 6 46-3 69-6 15-16 28-29 38 2 9 3 19 3 28 0 20-6 38-14 56l-8 11c-3 3-8 3-10-1-7-8-10-18-13-28l-8-38c-24 8-50 9-75 6l-45-8c-30-6-61-12-92-14-30-3-61-1-91 5-3 0-4 2-6 3-10 6-19 15-24 26-4 7-4 15-3 23l2 12-10 15c-5 8-7 18-8 27l1 36c1 18-1 37-8 53l-2 5h-4l-9-8-19 7c-5 2-10 3-16 3-3 0-5-2-7-4-6-7-11-15-15-23a221 221 0 0 1-19-91c0-33 5-66 15-97 9-24 24-46 45-60 10-6 20-10 31-12 1-6 2-12 5-17 6-13 17-22 29-30 33-23 74-34 114-35 22 0 44 3 66 8l53 10c23 5 46 10 70 11 12 0 25 0 37-5 9-3 16-7 20-15 4-5 4-12 7-17 2-3 7-5 11-3Z" fill="#000000"/><path d="M528 244c41 6 80 22 113 47 28 21 50 49 65 81 13 28 20 60 19 91-1 15-3 30-8 44h-2l1-21c1-30-2-59-13-87-10-30-28-57-50-79-42-40-98-62-156-63a243 243 0 0 0-196 94 207 207 0 0 0-40 139l2 25c8 0 19 0 25 7l-3 3-17 1c-12 1-24 5-33 13a64 64 0 0 0-17 39c-5 32 12 65 39 83 16 10 36 15 55 9 4-2 9-5 14-3 3 1 4 4 5 7a251 251 0 0 0 90 100c8 7 18 13 28 18 18 8 38 14 57 19l32 8c5 1 9 1 13 3l-4 1c-25 2-48-3-72-10-12-3-23-7-34-12a306 306 0 0 1-84-63l2 28c1 17 0 35-6 52-4 12-11 24-19 34-10 10-22 19-34 26-10 7-21 14-32 18l-16 5 9-9 31-20 22-17a95 95 0 0 0 32-56c2-14 2-28 2-43v-27c-10-14-22-29-27-46-17 8-38 7-55-1-17-7-32-19-43-33-12-17-19-36-21-56s2-40 15-56c9-10 22-18 35-21-4-14-6-29-6-44a234 234 0 0 1 83-173 249 249 0 0 1 199-55Z" fill="#000"/><path d="M653 320c22 22 40 49 50 79 11 28 14 57 13 87l-1 21-5 15-2 13 2 56c0 21 1 42-1 63l-3 47c-2 16-7 31-14 45-11 18-26 33-44 44-13 8-27 12-41 16l-38 11-17 3c0 1 1 2 3 2 8 5 17 5 26 4-3 7-4 14-2 22 3 7 11 11 17 14 12 6 24 7 36 9 7 6 14 14 16 24 2 8 2 16-2 23-5 10-14 18-24 23-13 8-27 14-42 18a468 468 0 0 1-222-1c-17-4-33-9-48-17-12-6-23-13-32-22-5-7-9-14-10-23 11-4 22-11 32-18 12-7 24-16 34-26 8-10 15-22 19-34 6-17 7-35 6-52l-2-28 22 23c19 15 40 30 62 40 11 5 22 9 34 12 24 7 47 12 72 10l4-1c-4-2-8-2-13-3l-32-8c-19-5-39-11-57-19l-29-17c-11-9-23-17-33-27a251 251 0 0 1-56-74c-1-3-2-6-5-7-5-2-10 1-14 3-19 6-39 1-55-9a88 88 0 0 1-39-83c1-14 7-28 17-39 9-8 21-12 33-13l17-1 3-3c-6-7-17-7-25-7l-2-25a207 207 0 0 1 40-139 243 243 0 0 1 196-94c58 1 114 23 156 63Z" fill="#ffffff"/><path d="M710 522c3 0 3 4 4 6 3 11 4 23 5 34l2 21c1 22 2 43 1 65-1 21-1 44-5 65a136 136 0 0 1-80 99c-15 7-31 11-48 13v15c1 3 3 4 5 6 12 6 23 8 36 11 12 3 24 5 36 11-3 3-7 4-11 4-7 1-15-1-23-1-12-2-24-3-36-9-6-3-14-7-17-14-2-8-1-15 2-22-9 1-18 1-26-4-2 0-3-1-3-2l17-3 38-11c14-4 28-8 41-16 18-11 33-26 44-44 7-14 12-29 14-45l3-47c2-21 1-42 1-63l-2-56 2-13ZM252 549c8 0 17 1 23 7 5 4 10 9 12 15 1 3 0 6-2 8l-13 8c-7 6-7 19 0 25 6 5 14 8 21 11 2 0 5 1 6 3-1 2-3 3-5 3-10 0-20-3-28-9-5-3-8-8-9-13-2-8-2-17 4-24 4-6 11-9 18-12-4-5-7-11-14-13-7-3-15-3-22-5l9-4Z" fill="#000"/><path d="M668 488c8 0 16 4 22 10 2 3 5 8 4 12 0 3-4 5-4 8-2 8-9 14-16 18-4 2-11 2-14-2-3-3-3-8-4-12 0-8 3-17 6-24-4 0-8 2-11 5-11 6-19 17-24 28-2 3-3 8-6 10-1 1-3 1-4-1v-9c4-13 12-25 22-34 9-6 19-9 29-9ZM444 498c20-1 43 2 60 13 9 5 17 13 20 23 2 4 0 7-2 11-2 3-7 5-11 7-12 3-24 1-36-1-5-1-11-2-14-6-4-5-3-11-1-17 1-7 3-14 9-20h-23c-17 2-33 9-47 20-2 2-5 4-8 3-5 0-8-5-7-9s4-6 7-8c16-10 35-14 53-16Z" fill="#000000"/><path d="M492 386c7 0 13 0 19 2 8 2 15 5 18 13 4 7 4 14 2 22-1 4-4 7-9 8-8 3-17 1-26-1-7-1-15-3-22-6-6-3-12-8-13-14-2-6 2-13 7-16 7-6 16-7 24-8ZM658 388c5 1 9 4 11 9 2 3 1 8 0 11-1 4-5 8-8 10-5 5-11 6-18 8-5 1-12 3-18 1-2-1-6-4-7-7-3-11 3-25 14-30 8-4 17-4 26-2Z" fill="#000000"/><path d="m591 528 2 2 7 22c4 8 10 15 15 23 4 6 6 13 5 20-1 6-4 12-9 16-7 7-16 12-25 16-5 3-11 4-17 2l5-4c11-9 25-14 36-24 2-2 4-6 4-9-1-7-5-11-8-16-5-9-10-16-13-25-2-7-4-16-2-23Z" fill="#000000"/><path d="M632 656c-5 5-12 9-18 13-11 8-23 15-36 20-3 1-6 3-10 3l-17-2h-23l-23-2c-6 0-11-4-15-9l-13 1c-3-1-6-4-4-7s7-5 10-7c5-1 11-2 16 1 3 2 4 6 6 8l5 1c15 1 31 1 46 4 5 1 10 4 15 2 5-1 10-4 14-6 13-6 25-13 38-18 3-1 6-3 9-2Z" fill="#000000"/><path d="M720 183c3 1 6 3 8 6a132 132 0 0 1 27 65c3 23-1 47-14 67-6 11-15 20-25 28-15 11-32 20-50 26-23 6-47 7-71 4l-43-8c-30-6-60-11-90-14-32-3-64-1-96 5-2 0-3 2-5 3-10 6-19 15-24 25-4 7-4 16-3 24l2 12-11 15c-6 12-7 25-7 38l2 31c0 16-3 32-9 47l-2 5h-4l-13-11c-10-6-19-11-30-15-7-4-13-7-19-13-7-6-12-15-15-24-6-15-7-29-7-45v-25c1-19 3-39 8-57 4-15 8-30 15-44 10-17 23-31 40-41 8-5 18-8 27-10 1-6 2-12 5-17 6-13 17-22 29-30 33-23 74-34 114-35 22 0 44 3 65 7l56 12c26 5 53 10 79 10 12-1 24-2 35-8 5-4 10-8 13-14 2-5 2-10 5-14 1-3 5-5 8-5Z" fill="#000000"/></g><g transform="translate(10 -60)"></g></g></svg>