<svg width="127" height="147" viewBox="0 0 127 147" fill="none" xmlns="http://www.w3.org/2000/svg">
<rect x="0.777344" y="0.565918" width="126" height="146.16" rx="16" fill="#B8D2C3"/>
<path d="M59.7552 43.4009H55.7232V47.4329H59.7552V43.4009Z" fill="#004A50"/>
<path d="M63.8123 43.4009H59.7803V47.4329H63.8123V43.4009Z" fill="#004A50"/>
<path d="M69.924 43.4009H58.3904V47.4329H69.924V43.4009Z" fill="#004A50"/>
<path d="M69.924 99.8486H58.3904V103.881H69.924V99.8486Z" fill="#004A50"/>
<path d="M71.8629 43.4009H67.8309V47.4329H71.8629V43.4009Z" fill="#004A50"/>
<path d="M51.7165 47.4336H47.6845V51.4656H51.7165V47.4336Z" fill="#004A50"/>
<path d="M55.7334 47.4336H51.7014V51.4656H55.7334V47.4336Z" fill="#004A50"/>
<path d="M75.8912 47.4336H71.8592V51.4656H75.8912V47.4336Z" fill="#004A50"/>
<path d="M79.9007 47.4336H75.8687V51.4656H79.9007V47.4336Z" fill="#004A50"/>
<path d="M43.6376 51.4658H39.6056V55.4978H43.6376V51.4658Z" fill="#004A50"/>
<path d="M47.648 51.4658H43.616V55.4978H47.648V51.4658Z" fill="#004A50"/>
<path d="M83.9706 51.4658H79.9386V55.4978H83.9706V51.4658Z" fill="#004A50"/>
<path d="M87.9811 51.4658H83.9491V55.4978H87.9811V51.4658Z" fill="#004A50"/>
<path d="M39.6093 55.4966H35.5773V59.5286H39.6093V55.4966Z" fill="#004A50"/>
<path d="M92.0094 55.4966H87.9774V59.5286H92.0094V55.4966Z" fill="#004A50"/>
<path d="M39.6093 59.5288H35.5773V63.5608H39.6093V59.5288Z" fill="#004A50"/>
<path d="M92.0094 59.5288H87.9774V63.5608H92.0094V59.5288Z" fill="#004A50"/>
<path d="M35.5571 63.561H31.5252V67.593H35.5571V63.561Z" fill="#004A50"/>
<path d="M96.0605 63.561H92.0285V67.593H96.0605V63.561Z" fill="#004A50"/>
<path d="M35.5571 67.5928H31.5252V71.6248H35.5571V67.5928Z" fill="#004A50"/>
<path d="M51.7165 67.5928H47.6845V71.6248H51.7165V67.5928Z" fill="#004A50"/>
<path d="M79.9007 67.5928H75.8687V71.6248H79.9007V67.5928Z" fill="#004A50"/>
<path d="M96.0605 67.5928H92.0285V71.6248H96.0605V67.5928Z" fill="#004A50"/>
<path d="M35.5571 71.6255H31.5252V75.6575H35.5571V71.6255Z" fill="#004A50"/>
<path d="M51.7165 71.6255H47.6845V75.6575H51.7165V71.6255Z" fill="#004A50"/>
<path d="M79.9007 71.6255H75.8687V75.6575H79.9007V71.6255Z" fill="#004A50"/>
<path d="M96.0605 71.6255H92.0285V75.6575H96.0605V71.6255Z" fill="#004A50"/>
<path d="M35.5571 75.6562H31.5252V79.6882H35.5571V75.6562Z" fill="#004A50"/>
<path d="M51.7165 75.6562H47.6845V79.6882H51.7165V75.6562Z" fill="#004A50"/>
<path d="M79.9007 75.6562H75.8687V79.6882H79.9007V75.6562Z" fill="#004A50"/>
<path d="M96.0605 75.6562H92.0285V79.6882H96.0605V75.6562Z" fill="#004A50"/>
<path d="M35.5571 79.688H31.5252V83.72H35.5571V79.688Z" fill="#004A50"/>
<path d="M59.7552 79.688H55.7232V83.72H59.7552V79.688Z" fill="#004A50"/>
<path d="M71.8629 79.688H67.8309V83.72H71.8629V79.688Z" fill="#004A50"/>
<path d="M96.0605 79.688H92.0285V83.72H96.0605V79.688Z" fill="#004A50"/>
<path d="M39.6093 83.7212H35.5773V87.7532H39.6093V83.7212Z" fill="#004A50"/>
<path d="M63.8123 83.7212H59.7803V87.7532H63.8123V83.7212Z" fill="#004A50"/>
<path d="M67.8049 83.7212H63.7729V87.7532H67.8049V83.7212Z" fill="#004A50"/>
<path d="M92.0094 83.7212H87.9774V87.7532H92.0094V83.7212Z" fill="#004A50"/>
<path d="M39.6093 87.7529H35.5773V91.7849H39.6093V87.7529Z" fill="#004A50"/>
<path d="M92.0094 87.7529H87.9774V91.7849H92.0094V87.7529Z" fill="#004A50"/>
<path d="M43.6376 91.7847H39.6056V95.8167H43.6376V91.7847Z" fill="#004A50"/>
<path d="M47.648 91.7847H43.616V95.8167H47.648V91.7847Z" fill="#004A50"/>
<path d="M83.9706 91.7847H79.9386V95.8167H83.9706V91.7847Z" fill="#004A50"/>
<path d="M87.9811 91.7847H83.9491V95.8167H87.9811V91.7847Z" fill="#004A50"/>
<path d="M51.7165 95.8164H47.6845V99.8484H51.7165V95.8164Z" fill="#004A50"/>
<path d="M55.7334 95.8164H51.7014V99.8484H55.7334V95.8164Z" fill="#004A50"/>
<path d="M75.8853 95.8164H71.8533V99.8484H75.8853V95.8164Z" fill="#004A50"/>
<path d="M79.9007 95.8164H75.8687V99.8484H79.9007V95.8164Z" fill="#004A50"/>
<path d="M59.7552 99.8486H55.7232V103.881H59.7552V99.8486Z" fill="#004A50"/>
<path d="M63.8123 99.8486H59.7803V103.881H63.8123V99.8486Z" fill="#004A50"/>
<path d="M67.8049 99.8486H63.7729V103.881H67.8049V99.8486Z" fill="#004A50"/>
<path d="M71.8629 99.8486H67.8309V103.881H71.8629V99.8486Z" fill="#004A50"/>
</svg>
