<svg width="127" height="147" viewBox="0 0 127 147" fill="none" xmlns="http://www.w3.org/2000/svg">
<rect x="0.777344" y="0.565918" width="126" height="146.16" rx="16" fill="#B8D2C3"/>
<path d="M59.7549 43.4009H55.7229V47.4329H59.7549V43.4009Z" fill="#004A50"/>
<path d="M63.8124 43.4009H59.7804V47.4329H63.8124V43.4009Z" fill="#004A50"/>
<path d="M67.805 43.4009H63.773V47.4329H67.805V43.4009Z" fill="#004A50"/>
<path d="M71.8628 43.4009H67.8308V47.4329H71.8628V43.4009Z" fill="#004A50"/>
<path d="M51.7165 47.4336H47.6845V51.4656H51.7165V47.4336Z" fill="#004A50"/>
<path d="M55.7329 47.4336H51.7009V51.4656H55.7329V47.4336Z" fill="#004A50"/>
<path d="M75.8908 47.4336H71.8589V51.4656H75.8908V47.4336Z" fill="#004A50"/>
<path d="M79.9009 47.4336H75.8689V51.4656H79.9009V47.4336Z" fill="#004A50"/>
<path d="M43.637 51.4658H39.605V55.4978H43.637V51.4658Z" fill="#004A50"/>
<path d="M47.6473 51.4658H43.6153V55.4978H47.6473V51.4658Z" fill="#004A50"/>
<path d="M83.9704 51.4658H79.9384V55.4978H83.9704V51.4658Z" fill="#004A50"/>
<path d="M87.9807 51.4658H83.9488V55.4978H87.9807V51.4658Z" fill="#004A50"/>
<path d="M39.6089 55.4966H35.5769V59.5286H39.6089V55.4966Z" fill="#004A50"/>
<path d="M92.0088 55.4966H87.9768V59.5286H92.0088V55.4966Z" fill="#004A50"/>
<path d="M39.6089 59.5288H35.5769V63.5608H39.6089V59.5288Z" fill="#004A50"/>
<path d="M92.0088 59.5288H87.9768V63.5608H92.0088V59.5288Z" fill="#004A50"/>
<path d="M35.5571 63.561H31.5251V67.593H35.5571V63.561Z" fill="#004A50"/>
<path d="M96.0605 63.561H92.0286V67.593H96.0605V63.561Z" fill="#004A50"/>
<path d="M35.5571 67.5928H31.5251V71.6248H35.5571V67.5928Z" fill="#004A50"/>
<path d="M50.4999 67.9707H46.468V72.0027H50.4999V67.9707Z" fill="#004A50"/>
<path d="M79.9009 67.5928H75.8689V71.6248H79.9009V67.5928Z" fill="#004A50"/>
<path d="M96.0605 67.5928H92.0286V71.6248H96.0605V67.5928Z" fill="#004A50"/>
<path d="M35.5571 71.6255H31.5251V75.6575H35.5571V71.6255Z" fill="#004A50"/>
<path d="M54.2366 71.6255H50.2046V75.6575H54.2366V71.6255Z" fill="#004A50"/>
<path d="M75.8689 71.624H71.8369V75.656H75.8689V71.624Z" fill="#004A50"/>
<path d="M96.0605 71.6255H92.0286V75.6575H96.0605V71.6255Z" fill="#004A50"/>
<path d="M35.5571 75.6562H31.5251V79.6882H35.5571V75.6562Z" fill="#004A50"/>
<path d="M46.468 72.0029H42.436V76.0349H46.468V72.0029Z" fill="#004A50"/>
<path d="M83.9329 71.624H79.9009V75.656H83.9329V71.624Z" fill="#004A50"/>
<path d="M96.0605 75.6562H92.0286V79.6882H96.0605V75.6562Z" fill="#004A50"/>
<path d="M35.5571 79.688H31.5251V83.72H35.5571V79.688Z" fill="#004A50"/>
<path d="M59.7549 79.688H55.7229V83.72H59.7549V79.688Z" fill="#004A50"/>
<path d="M71.8628 79.688H67.8308V83.72H71.8628V79.688Z" fill="#004A50"/>
<path d="M96.0605 79.688H92.0286V83.72H96.0605V79.688Z" fill="#004A50"/>
<path d="M39.6089 83.7212H35.5769V87.7532H39.6089V83.7212Z" fill="#004A50"/>
<path d="M63.8124 83.7212H59.7804V87.7532H63.8124V83.7212Z" fill="#004A50"/>
<path d="M67.805 83.7212H63.773V87.7532H67.805V83.7212Z" fill="#004A50"/>
<path d="M92.0088 83.7212H87.9768V87.7532H92.0088V83.7212Z" fill="#004A50"/>
<path d="M39.6089 87.7529H35.5769V91.7849H39.6089V87.7529Z" fill="#004A50"/>
<path d="M92.0088 87.7529H87.9768V91.7849H92.0088V87.7529Z" fill="#004A50"/>
<path d="M43.637 91.7847H39.605V95.8167H43.637V91.7847Z" fill="#004A50"/>
<path d="M47.6473 91.7847H43.6153V95.8167H47.6473V91.7847Z" fill="#004A50"/>
<path d="M83.9704 91.7847H79.9384V95.8167H83.9704V91.7847Z" fill="#004A50"/>
<path d="M87.9807 91.7847H83.9488V95.8167H87.9807V91.7847Z" fill="#004A50"/>
<path d="M51.7165 95.8164H47.6845V99.8484H51.7165V95.8164Z" fill="#004A50"/>
<path d="M55.7329 95.8164H51.7009V99.8484H55.7329V95.8164Z" fill="#004A50"/>
<path d="M75.8848 95.8164H71.8528V99.8484H75.8848V95.8164Z" fill="#004A50"/>
<path d="M79.9009 95.8164H75.8689V99.8484H79.9009V95.8164Z" fill="#004A50"/>
<path d="M59.7549 99.8491H55.7229V103.881H59.7549V99.8491Z" fill="#004A50"/>
<path d="M63.8124 99.8491H59.7804V103.881H63.8124V99.8491Z" fill="#004A50"/>
<path d="M67.805 99.8491H63.773V103.881H67.805V99.8491Z" fill="#004A50"/>
<path d="M71.8628 99.8491H67.8308V103.881H71.8628V99.8491Z" fill="#004A50"/>
</svg>
