<svg width="18" height="12" viewBox="0 0 18 12" fill="none" xmlns="http://www.w3.org/2000/svg">
<g clip-path="url(#clip0_26_7462)">
<path d="M11.9284 8.9335L11.9285 8.93348C12.4821 8.64843 13.0434 8.38134 13.5976 8.11857L13.6767 8.0811C14.2061 7.83013 14.7284 7.58252 15.2428 7.32143C16.3289 6.7701 16.8548 5.91219 17.0425 5.0098C17.2341 4.08876 17.0719 3.11579 16.7546 2.39921C16.2007 1.14917 15.1481 0.582835 13.7278 0.516544L13.7511 0.0170879L13.7278 0.516544C12.1949 0.444991 11.0341 1.02282 10.2522 2.32699C10.107 2.5695 9.9871 2.82129 9.8445 3.12073C9.80219 3.20958 9.75788 3.30263 9.71032 3.40087C9.48487 3.86657 8.82353 3.84371 8.6216 3.37752L9.08041 3.17879L8.6216 3.37752L8.6123 3.35604C8.53509 3.17777 8.47083 3.02942 8.40512 2.88197L11.9284 8.9335ZM11.9284 8.9335C10.9132 9.45635 9.9212 10.1015 9.17789 11.0963M11.9284 8.9335L9.17789 11.0963M2.65344 7.01983L2.65354 7.01989C3.38841 7.47057 4.17569 7.8585 4.9815 8.22792L2.65344 7.01983ZM2.65344 7.01983C1.54144 6.33824 1.20854 5.26067 1.25423 3.90137L2.65344 7.01983ZM4.20158 0.54758L4.20154 0.547585C3.45912 0.653201 2.74077 0.969599 2.20318 1.5088C1.67218 2.04139 1.29073 2.81748 1.25423 3.90134L4.20158 0.54758ZM4.20158 0.54758C6.06108 0.282895 7.62295 1.12981 8.40501 2.88172L4.20158 0.54758ZM9.17789 11.0963C8.0566 9.65529 6.46801 8.90914 4.98157 8.22795L9.17789 11.0963Z" stroke="#004A50"/>
</g>
<defs>
<clipPath id="clip0_26_7462">
<rect width="16.875" height="12" fill="white" transform="translate(0.75)"/>
</clipPath>
</defs>
</svg>
