<svg width="18" height="12" viewBox="0 0 18 12" fill="none" xmlns="http://www.w3.org/2000/svg">
<path d="M11.8036 8.93374L11.8036 8.93372C12.3572 8.64868 12.9185 8.38159 13.4727 8.11882L13.5518 8.08134C14.0812 7.83037 14.6035 7.58277 15.1179 7.32167C16.2041 6.77035 16.7299 5.91244 16.9176 5.01004C17.1092 4.089 16.9471 3.11604 16.6297 2.39945C16.0758 1.14942 15.0233 0.583079 13.6029 0.516788L13.6262 0.017332L13.6029 0.516788C12.07 0.445236 10.9093 1.02306 10.1274 2.32724C9.98213 2.56975 9.86223 2.82153 9.71963 3.12098C9.67731 3.20983 9.633 3.30287 9.58544 3.40111C9.35999 3.86681 8.69865 3.84396 8.49672 3.37776L8.95553 3.17903L8.49672 3.37776L8.48742 3.35628C8.41021 3.17802 8.34596 3.02967 8.28024 2.88222L11.8036 8.93374ZM11.8036 8.93374C10.7883 9.4566 9.79633 10.1017 9.05301 11.0966M11.8036 8.93374L9.05301 11.0966M2.52856 7.02008L2.52866 7.02014C3.26353 7.47081 4.05082 7.85874 4.85662 8.22816L2.52856 7.02008ZM2.52856 7.02008C1.41656 6.33849 1.08366 5.26092 1.12935 3.90161L2.52856 7.02008ZM4.0767 0.547824L4.07666 0.547829C3.33424 0.653445 2.61589 0.969843 2.0783 1.50904C1.5473 2.04164 1.16586 2.81772 1.12935 3.90159L4.0767 0.547824ZM4.0767 0.547824C5.93621 0.283139 7.49808 1.13006 8.28013 2.88196L4.0767 0.547824ZM9.05301 11.0966C7.93172 9.65553 6.34313 8.90938 4.85669 8.2282L9.05301 11.0966Z" stroke="#004A50"/>
</svg>
