<svg width="17" height="12" viewBox="0 0 17 12" fill="none" xmlns="http://www.w3.org/2000/svg">
<path d="M8.33053 3.17903C8.3643 3.25698 8.47339 3.2597 8.51041 3.18324C8.70829 2.7745 8.86998 2.41003 9.0734 2.07035C9.95648 0.597267 11.2975 -0.0621949 13.0012 0.017332C14.561 0.0901297 15.813 0.732462 16.4619 2.19698C17.1701 3.79608 17.1886 6.51407 14.7192 7.76754C13.6248 8.323 12.4982 8.81668 11.4075 9.37826C10.2649 9.96669 9.21943 10.6817 8.52682 11.8476C8.48732 11.9141 8.38982 11.9158 8.34831 11.8505C7.31467 10.2249 5.6821 9.44287 4.02332 8.68271C3.21068 8.31015 2.40237 7.91252 1.64227 7.44637C0.314858 6.63275 -0.0441843 5.33707 0.00463561 3.88479C0.0855901 1.48063 1.71704 0.289559 3.38124 0.0528133C5.46134 -0.243272 7.23863 0.722063 8.11183 2.67842C8.18149 2.83474 8.24941 2.99174 8.33053 3.17903Z" fill="#004A50"/>
</svg>
