<svg width="17" height="12" viewBox="0 0 17 12" fill="none" xmlns="http://www.w3.org/2000/svg">
<g clip-path="url(#clip0_26_7458)">
<path d="M8.33041 3.17879C8.36417 3.25674 8.47327 3.25946 8.51029 3.183C8.70817 2.77426 8.86985 2.40979 9.07327 2.07011C9.95636 0.597023 11.2974 -0.062439 13.0011 0.0170879C14.5609 0.0898856 15.8129 0.732218 16.4618 2.19674C17.17 3.79584 17.1885 6.51383 14.7191 7.76729C13.6246 8.32276 12.4981 8.81644 11.4074 9.37802C10.2647 9.96645 9.21931 10.6815 8.5267 11.8474C8.48719 11.9139 8.38969 11.9156 8.34819 11.8503C7.31455 10.2247 5.68198 9.44262 4.02319 8.68246C3.21056 8.30991 2.40225 7.91228 1.64214 7.44613C0.314736 6.6325 -0.0443064 5.33683 0.00451354 3.88454C0.0854681 1.48038 1.71692 0.289315 3.38112 0.0525691C5.46122 -0.243516 7.23851 0.721819 8.11171 2.67818C8.18137 2.83449 8.24929 2.99149 8.33041 3.17879Z" fill="#004A50"/>
</g>
<defs>
<clipPath id="clip0_26_7458">
<rect width="16.875" height="12" fill="white"/>
</clipPath>
</defs>
</svg>
