<svg width="281" height="234" viewBox="0 0 281 234" fill="none" xmlns="http://www.w3.org/2000/svg">
<rect x="31.5" y="1" width="200" height="232" rx="28" fill="#C4DACC"/>
<rect x="31.5" y="1" width="200" height="232" rx="28" stroke="#004A50"/>
<path d="M125.091 69H118.691V75.4H125.091V69Z" fill="#004A50"/>
<path d="M131.531 69H125.131V75.4H131.531V69Z" fill="#004A50"/>
<path d="M137.868 69H131.469V75.4H137.868V69Z" fill="#004A50"/>
<path d="M144.309 69H137.909V75.4H144.309V69Z" fill="#004A50"/>
<path d="M112.331 75.4009H105.931V81.8009H112.331V75.4009Z" fill="#004A50"/>
<path d="M118.706 75.4009H112.306V81.8009H118.706V75.4009Z" fill="#004A50"/>
<path d="M150.703 75.4009H144.303V81.8009H150.703V75.4009Z" fill="#004A50"/>
<path d="M157.068 75.4009H150.668V81.8009H157.068V75.4009Z" fill="#004A50"/>
<path d="M99.5064 81.8013H93.1064V88.2012H99.5064V81.8013Z" fill="#004A50"/>
<path d="M105.872 81.8013H99.4722V88.2012H105.872V81.8013Z" fill="#004A50"/>
<path d="M163.528 81.8013H157.128V88.2012H163.528V81.8013Z" fill="#004A50"/>
<path d="M169.893 81.8013H163.493V88.2012H169.893V81.8013Z" fill="#004A50"/>
<path d="M93.1127 88.1998H86.7128V94.5998H93.1127V88.1998Z" fill="#004A50"/>
<path d="M176.287 88.1998H169.887V94.5998H176.287V88.1998Z" fill="#004A50"/>
<path d="M93.1127 94.5997H86.7128V101H93.1127V94.5997Z" fill="#004A50"/>
<path d="M176.287 94.5997H169.887V101H176.287V94.5997Z" fill="#004A50"/>
<path d="M86.6813 101H80.2814V107.4H86.6813V101Z" fill="#004A50"/>
<path d="M182.719 101H176.319V107.4H182.719V101Z" fill="#004A50"/>
<path d="M86.6813 107.4H80.2814V113.8H86.6813V107.4Z" fill="#004A50"/>
<path d="M110.4 108H104V114.4H110.4V108Z" fill="#004A50"/>
<path d="M157.068 107.4H150.668V113.8H157.068V107.4Z" fill="#004A50"/>
<path d="M182.719 107.4H176.319V113.8H182.719V107.4Z" fill="#004A50"/>
<path d="M86.6813 113.801H80.2814V120.201H86.6813V113.801Z" fill="#004A50"/>
<path d="M116.331 113.801H109.931V120.201H116.331V113.801Z" fill="#004A50"/>
<path d="M151.4 114H145V120.4H151.4V114Z" fill="#004A50"/>
<path d="M182.719 113.801H176.319V120.201H182.719V113.801Z" fill="#004A50"/>
<path d="M86.6813 120.199H80.2814V126.599H86.6813V120.199Z" fill="#004A50"/>
<path d="M110.4 120.4H104V126.8H110.4V120.4Z" fill="#004A50"/>
<path d="M157.068 120.199H150.668V126.599H157.068V120.199Z" fill="#004A50"/>
<path d="M182.719 120.199H176.319V126.599H182.719V120.199Z" fill="#004A50"/>
<path d="M86.6813 126.599H80.2814V132.998H86.6813V126.599Z" fill="#004A50"/>
<path d="M125.091 126.599H118.691V132.998H125.091V126.599Z" fill="#004A50"/>
<path d="M144.309 126.599H137.909V132.998H144.309V126.599Z" fill="#004A50"/>
<path d="M182.719 126.599H176.319V132.998H182.719V126.599Z" fill="#004A50"/>
<path d="M93.1127 133H86.7128V139.4H93.1127V133Z" fill="#004A50"/>
<path d="M131.531 133H125.131V139.4H131.531V133Z" fill="#004A50"/>
<path d="M137.868 133H131.469V139.4H137.868V133Z" fill="#004A50"/>
<path d="M176.287 133H169.887V139.4H176.287V133Z" fill="#004A50"/>
<path d="M93.1127 139.4H86.7128V145.8H93.1127V139.4Z" fill="#004A50"/>
<path d="M176.287 139.4H169.887V145.8H176.287V139.4Z" fill="#004A50"/>
<path d="M99.5064 145.799H93.1064V152.199H99.5064V145.799Z" fill="#004A50"/>
<path d="M105.872 145.799H99.4722V152.199H105.872V145.799Z" fill="#004A50"/>
<path d="M163.528 145.799H157.128V152.199H163.528V145.799Z" fill="#004A50"/>
<path d="M169.893 145.799H163.493V152.199H169.893V145.799Z" fill="#004A50"/>
<path d="M112.331 152.199H105.931V158.599H112.331V152.199Z" fill="#004A50"/>
<path d="M118.706 152.199H112.306V158.599H118.706V152.199Z" fill="#004A50"/>
<path d="M150.694 152.199H144.294V158.599H150.694V152.199Z" fill="#004A50"/>
<path d="M157.068 152.199H150.668V158.599H157.068V152.199Z" fill="#004A50"/>
<path d="M125.091 158.6H118.691V165H125.091V158.6Z" fill="#004A50"/>
<path d="M131.531 158.6H125.131V165H131.531V158.6Z" fill="#004A50"/>
<path d="M137.868 158.6H131.469V165H137.868V158.6Z" fill="#004A50"/>
<path d="M144.309 158.6H137.909V165H144.309V158.6Z" fill="#004A50"/><path d="M0.5 86.5C0.5 78.768 6.76801 72.5 14.5 72.5H48.5C56.232 72.5 62.5 78.768 62.5 86.5C62.5 94.232 56.232 100.5 48.5 100.5H14.5C6.76801 100.5 0.5 94.232 0.5 86.5Z" fill="#B8D2C3"/>
<path d="M0.5 86.5C0.5 78.768 6.76801 72.5 14.5 72.5H48.5C56.232 72.5 62.5 78.768 62.5 86.5C62.5 94.232 56.232 100.5 48.5 100.5H14.5C6.76801 100.5 0.5 94.232 0.5 86.5Z" stroke="#004A50"/>
<path d="M15.776 92.008V89.064H12.992V87.176H15.776V84.232H17.824V87.176H20.608V89.064H17.824V92.008H15.776ZM36.6115 93V90.856H31.5875V88.808L36.0355 81.832H38.9155V89H40.3555V90.856H38.9155V93H36.6115ZM33.5235 89H36.6115V84.312H36.4675L33.5235 89ZM41.9973 93V81.832H46.3173C46.8613 81.832 47.3466 81.9173 47.7733 82.088C48.1999 82.248 48.5573 82.4827 48.8453 82.792C49.1439 83.1013 49.3679 83.4747 49.5173 83.912C49.6666 84.3493 49.7413 84.84 49.7413 85.384C49.7413 85.928 49.6666 86.4187 49.5173 86.856C49.3679 87.2933 49.1439 87.6667 48.8453 87.976C48.5573 88.2853 48.1999 88.5253 47.7733 88.696C47.3466 88.856 46.8613 88.936 46.3173 88.936H44.4133V93H41.9973ZM44.4133 87H45.7093C46.2746 87 46.6639 86.8933 46.8773 86.68C47.1013 86.4667 47.2133 86.1147 47.2133 85.624V85.144C47.2133 84.6533 47.1013 84.3013 46.8773 84.088C46.6639 83.8747 46.2746 83.768 45.7093 83.768H44.4133V87Z" fill="#004A50"/>
<path d="M200.5 61.5C200.5 53.768 206.768 47.5 214.5 47.5H248.5C256.232 47.5 262.5 53.768 262.5 61.5C262.5 69.232 256.232 75.5 248.5 75.5H214.5C206.768 75.5 200.5 69.232 200.5 61.5Z" fill="#B8D2C3"/>
<path d="M200.5 61.5C200.5 53.768 206.768 47.5 214.5 47.5H248.5C256.232 47.5 262.5 53.768 262.5 61.5C262.5 69.232 256.232 75.5 248.5 75.5H214.5C206.768 75.5 200.5 69.232 200.5 61.5Z" stroke="#004A50"/>
<path d="M215.776 67.008V64.064H212.992V62.176H215.776V59.232H217.824V62.176H220.608V64.064H217.824V67.008H215.776ZM236.612 68V65.856H231.588V63.808L236.036 56.832H238.916V64H240.356V65.856H238.916V68H236.612ZM233.524 64H236.612V59.312H236.468L233.524 64ZM241.997 68V56.832H246.317C246.861 56.832 247.347 56.9173 247.773 57.088C248.2 57.248 248.557 57.4827 248.845 57.792C249.144 58.1013 249.368 58.4747 249.517 58.912C249.667 59.3493 249.741 59.84 249.741 60.384C249.741 60.928 249.667 61.4187 249.517 61.856C249.368 62.2933 249.144 62.6667 248.845 62.976C248.557 63.2853 248.2 63.5253 247.773 63.696C247.347 63.856 246.861 63.936 246.317 63.936H244.413V68H241.997ZM244.413 62H245.709C246.275 62 246.664 61.8933 246.877 61.68C247.101 61.4667 247.213 61.1147 247.213 60.624V60.144C247.213 59.6533 247.101 59.3013 246.877 59.088C246.664 58.8747 246.275 58.768 245.709 58.768H244.413V62Z" fill="#004A50"/>
<path d="M218.5 109.5C218.5 101.768 224.768 95.5 232.5 95.5H266.5C274.232 95.5 280.5 101.768 280.5 109.5C280.5 117.232 274.232 123.5 266.5 123.5H232.5C224.768 123.5 218.5 117.232 218.5 109.5Z" fill="#B8D2C3"/>
<path d="M218.5 109.5C218.5 101.768 224.768 95.5 232.5 95.5H266.5C274.232 95.5 280.5 101.768 280.5 109.5C280.5 117.232 274.232 123.5 266.5 123.5H232.5C224.768 123.5 218.5 117.232 218.5 109.5Z" stroke="#004A50"/>
<path d="M233.776 115.008V112.064H230.992V110.176H233.776V107.232H235.824V110.176H238.608V112.064H235.824V115.008H233.776ZM254.612 116V113.856H249.588V111.808L254.036 104.832H256.916V112H258.356V113.856H256.916V116H254.612ZM251.524 112H254.612V107.312H254.468L251.524 112ZM259.997 116V104.832H264.317C264.861 104.832 265.347 104.917 265.773 105.088C266.2 105.248 266.557 105.483 266.845 105.792C267.144 106.101 267.368 106.475 267.517 106.912C267.667 107.349 267.741 107.84 267.741 108.384C267.741 108.928 267.667 109.419 267.517 109.856C267.368 110.293 267.144 110.667 266.845 110.976C266.557 111.285 266.2 111.525 265.773 111.696C265.347 111.856 264.861 111.936 264.317 111.936H262.413V116H259.997ZM262.413 110H263.709C264.275 110 264.664 109.893 264.877 109.68C265.101 109.467 265.213 109.115 265.213 108.624V108.144C265.213 107.653 265.101 107.301 264.877 107.088C264.664 106.875 264.275 106.768 263.709 106.768H262.413V110Z" fill="#004A50"/>
</svg>