<svg width="240" height="64" viewBox="0 0 240 64" fill="none" xmlns="http://www.w3.org/2000/svg">
<rect width="117" height="26" rx="13" fill="#B8D2C3"/>
<path d="M14.072 14.976H12.224V14.052H14.24L14.562 12.176H12.728V11.252H14.73L15.262 8.228H16.284L14.562 18H13.54L14.072 14.976ZM17.838 8.228H18.86L18.328 11.252H20.176V12.176H18.16L17.838 14.052H19.672V14.976H17.67L17.138 18H16.116L17.838 8.228ZM26.7645 13.1V10.006H26.6525L24.5945 15.032L22.5365 10.006H22.4245V13.1V18H21.3465V8.228H22.8585L24.5805 12.54H24.6645L26.3865 8.228H27.8425V18H26.7645V13.1ZM33.1151 18.168C32.5924 18.168 32.1211 18.0793 31.7011 17.902C31.2904 17.7247 30.9357 17.4727 30.6371 17.146C30.3477 16.81 30.1237 16.4133 29.9651 15.956C29.8064 15.4893 29.7271 14.9713 29.7271 14.402C29.7271 13.8233 29.8064 13.3007 29.9651 12.834C30.1331 12.3673 30.3617 11.9707 30.6511 11.644C30.9404 11.308 31.2857 11.0513 31.6871 10.874C32.0977 10.6967 32.5504 10.608 33.0451 10.608C33.5304 10.608 33.9691 10.6967 34.3611 10.874C34.7624 11.0513 35.1031 11.2987 35.3831 11.616C35.6631 11.924 35.8777 12.2927 36.0271 12.722C36.1764 13.1513 36.2511 13.6227 36.2511 14.136V14.668H30.9031V15.004C30.9031 15.3213 30.9544 15.6153 31.0571 15.886C31.1597 16.1567 31.3044 16.39 31.4911 16.586C31.6871 16.782 31.9204 16.936 32.1911 17.048C32.4711 17.1507 32.7791 17.202 33.1151 17.202C33.6004 17.202 34.0204 17.09 34.3751 16.866C34.7297 16.642 35.0004 16.334 35.1871 15.942L36.0131 16.502C35.7984 16.9873 35.4391 17.3887 34.9351 17.706C34.4404 18.014 33.8337 18.168 33.1151 18.168ZM33.0451 11.532C32.7371 11.532 32.4524 11.588 32.1911 11.7C31.9297 11.812 31.7011 11.966 31.5051 12.162C31.3184 12.358 31.1691 12.5913 31.0571 12.862C30.9544 13.1233 30.9031 13.4127 30.9031 13.73V13.828H35.0471V13.674C35.0471 13.3567 34.9957 13.0673 34.8931 12.806C34.7997 12.5447 34.6644 12.3207 34.4871 12.134C34.3191 11.938 34.1091 11.7887 33.8571 11.686C33.6144 11.5833 33.3437 11.532 33.0451 11.532ZM37.9396 18V10.776H38.9756V11.616H39.0316C39.1436 11.336 39.3023 11.098 39.5076 10.902C39.7129 10.706 40.0163 10.608 40.4176 10.608C40.8376 10.608 41.1503 10.7153 41.3556 10.93C41.5609 11.1353 41.6869 11.406 41.7336 11.742H41.7756C41.9063 11.4153 42.0929 11.1447 42.3356 10.93C42.5783 10.7153 42.9143 10.608 43.3436 10.608C43.9316 10.608 44.3236 10.8133 44.5196 11.224C44.7249 11.6347 44.8276 12.2227 44.8276 12.988V18H43.7916V13.17C43.7916 12.554 43.7263 12.1293 43.5956 11.896C43.4743 11.6533 43.2456 11.532 42.9096 11.532C42.6109 11.532 42.3683 11.63 42.1816 11.826C41.9949 12.0127 41.9016 12.302 41.9016 12.694V18H40.8656V13.17C40.8656 12.554 40.8003 12.1293 40.6696 11.896C40.5483 11.6533 40.3243 11.532 39.9976 11.532C39.6989 11.532 39.4516 11.63 39.2556 11.826C39.0689 12.0127 38.9756 12.302 38.9756 12.694V18H37.9396ZM49.9041 18.168C49.3815 18.168 48.9101 18.0793 48.4901 17.902C48.0795 17.7247 47.7248 17.4727 47.4261 17.146C47.1368 16.81 46.9128 16.4133 46.7541 15.956C46.5955 15.4893 46.5161 14.9713 46.5161 14.402C46.5161 13.8233 46.5955 13.3007 46.7541 12.834C46.9221 12.3673 47.1508 11.9707 47.4401 11.644C47.7295 11.308 48.0748 11.0513 48.4761 10.874C48.8868 10.6967 49.3395 10.608 49.8341 10.608C50.3195 10.608 50.7581 10.6967 51.1501 10.874C51.5515 11.0513 51.8921 11.2987 52.1721 11.616C52.4521 11.924 52.6668 12.2927 52.8161 12.722C52.9655 13.1513 53.0401 13.6227 53.0401 14.136V14.668H47.6921V15.004C47.6921 15.3213 47.7435 15.6153 47.8461 15.886C47.9488 16.1567 48.0935 16.39 48.2801 16.586C48.4761 16.782 48.7095 16.936 48.9801 17.048C49.2601 17.1507 49.5681 17.202 49.9041 17.202C50.3895 17.202 50.8095 17.09 51.1641 16.866C51.5188 16.642 51.7895 16.334 51.9761 15.942L52.8021 16.502C52.5875 16.9873 52.2281 17.3887 51.7241 17.706C51.2295 18.014 50.6228 18.168 49.9041 18.168ZM49.8341 11.532C49.5261 11.532 49.2415 11.588 48.9801 11.7C48.7188 11.812 48.4901 11.966 48.2941 12.162C48.1075 12.358 47.9581 12.5913 47.8461 12.862C47.7435 13.1233 47.6921 13.4127 47.6921 13.73V13.828H51.8361V13.674C51.8361 13.3567 51.7848 13.0673 51.6821 12.806C51.5888 12.5447 51.4535 12.3207 51.2761 12.134C51.1081 11.938 50.8981 11.7887 50.6461 11.686C50.4035 11.5833 50.1328 11.532 49.8341 11.532ZM58.4247 18.168C57.902 18.168 57.4353 18.0793 57.0247 17.902C56.6233 17.7153 56.2827 17.4587 56.0027 17.132C55.7227 16.8053 55.508 16.4087 55.3587 15.942C55.2187 15.4753 55.1487 14.9573 55.1487 14.388C55.1487 13.8187 55.2233 13.3007 55.3727 12.834C55.522 12.3673 55.7367 11.9707 56.0167 11.644C56.2967 11.308 56.6373 11.0513 57.0387 10.874C57.44 10.6967 57.8973 10.608 58.4107 10.608C59.1107 10.608 59.68 10.762 60.1187 11.07C60.5573 11.378 60.8793 11.7793 61.0847 12.274L60.1887 12.75C60.058 12.3767 59.8387 12.0873 59.5307 11.882C59.232 11.6767 58.8587 11.574 58.4107 11.574C58.084 11.574 57.79 11.63 57.5287 11.742C57.2767 11.8447 57.062 11.994 56.8847 12.19C56.7073 12.386 56.572 12.6193 56.4787 12.89C56.3947 13.1607 56.3527 13.4547 56.3527 13.772V15.004C56.3527 15.3213 56.3947 15.6153 56.4787 15.886C56.572 16.1567 56.7073 16.39 56.8847 16.586C57.062 16.782 57.2813 16.936 57.5427 17.048C57.804 17.1507 58.1027 17.202 58.4387 17.202C58.924 17.202 59.3253 17.09 59.6427 16.866C59.96 16.642 60.212 16.334 60.3987 15.942L61.1967 16.488C60.982 16.9733 60.646 17.3747 60.1887 17.692C59.7407 18.0093 59.1527 18.168 58.4247 18.168ZM66.5672 18.168C66.0632 18.168 65.6059 18.0793 65.1952 17.902C64.7939 17.7247 64.4485 17.4727 64.1592 17.146C63.8792 16.81 63.6645 16.4133 63.5152 15.956C63.3659 15.4893 63.2912 14.9667 63.2912 14.388C63.2912 13.8187 63.3659 13.3007 63.5152 12.834C63.6645 12.3673 63.8792 11.9707 64.1592 11.644C64.4485 11.308 64.7939 11.0513 65.1952 10.874C65.6059 10.6967 66.0632 10.608 66.5672 10.608C67.0712 10.608 67.5239 10.6967 67.9252 10.874C68.3359 11.0513 68.6812 11.308 68.9612 11.644C69.2505 11.9707 69.4699 12.3673 69.6192 12.834C69.7685 13.3007 69.8432 13.8187 69.8432 14.388C69.8432 14.9667 69.7685 15.4893 69.6192 15.956C69.4699 16.4133 69.2505 16.81 68.9612 17.146C68.6812 17.4727 68.3359 17.7247 67.9252 17.902C67.5239 18.0793 67.0712 18.168 66.5672 18.168ZM66.5672 17.202C67.1925 17.202 67.6965 17.0153 68.0792 16.642C68.4619 16.2687 68.6532 15.69 68.6532 14.906V13.87C68.6532 13.086 68.4619 12.5073 68.0792 12.134C67.6965 11.7607 67.1925 11.574 66.5672 11.574C65.9419 11.574 65.4379 11.7607 65.0552 12.134C64.6725 12.5073 64.4812 13.086 64.4812 13.87V14.906C64.4812 15.69 64.6725 16.2687 65.0552 16.642C65.4379 17.0153 65.9419 17.202 66.5672 17.202ZM75.4097 9.18C75.0831 9.18 74.8544 9.11467 74.7237 8.984C74.5931 8.844 74.5277 8.67133 74.5277 8.466V8.242C74.5277 8.03667 74.5931 7.86867 74.7237 7.738C74.8544 7.598 75.0831 7.528 75.4097 7.528C75.7364 7.528 75.9651 7.598 76.0957 7.738C76.2264 7.86867 76.2917 8.03667 76.2917 8.242V8.466C76.2917 8.67133 76.2264 8.844 76.0957 8.984C75.9651 9.11467 75.7364 9.18 75.4097 9.18ZM72.2457 17.048H74.8497V11.728H72.2457V10.776H75.9697V17.048H78.4057V18H72.2457V17.048ZM80.5283 18V10.776H81.6483V11.952H81.7043C81.7789 11.7747 81.8723 11.6067 81.9843 11.448C82.0963 11.28 82.2316 11.1353 82.3903 11.014C82.5583 10.8927 82.7543 10.7947 82.9783 10.72C83.2023 10.6453 83.4636 10.608 83.7623 10.608C84.5183 10.608 85.1249 10.8507 85.5823 11.336C86.0396 11.812 86.2683 12.4887 86.2683 13.366V18H85.1483V13.562C85.1483 12.8993 85.0036 12.4093 84.7143 12.092C84.4249 11.7653 84.0003 11.602 83.4403 11.602C83.2163 11.602 82.9969 11.63 82.7823 11.686C82.5676 11.742 82.3763 11.826 82.2083 11.938C82.0403 12.05 81.9049 12.1947 81.8023 12.372C81.6996 12.5493 81.6483 12.7547 81.6483 12.988V18H80.5283ZM91.8768 18.168C91.3541 18.168 90.8828 18.0793 90.4628 17.902C90.0521 17.7247 89.6974 17.4727 89.3988 17.146C89.1094 16.81 88.8854 16.4133 88.7268 15.956C88.5681 15.4893 88.4888 14.9713 88.4888 14.402C88.4888 13.8233 88.5681 13.3007 88.7268 12.834C88.8948 12.3673 89.1234 11.9707 89.4128 11.644C89.7021 11.308 90.0474 11.0513 90.4488 10.874C90.8594 10.6967 91.3121 10.608 91.8068 10.608C92.2921 10.608 92.7308 10.6967 93.1228 10.874C93.5241 11.0513 93.8648 11.2987 94.1448 11.616C94.4248 11.924 94.6394 12.2927 94.7888 12.722C94.9381 13.1513 95.0128 13.6227 95.0128 14.136V14.668H89.6648V15.004C89.6648 15.3213 89.7161 15.6153 89.8188 15.886C89.9214 16.1567 90.0661 16.39 90.2528 16.586C90.4488 16.782 90.6821 16.936 90.9528 17.048C91.2328 17.1507 91.5408 17.202 91.8768 17.202C92.3621 17.202 92.7821 17.09 93.1368 16.866C93.4914 16.642 93.7621 16.334 93.9488 15.942L94.7748 16.502C94.5601 16.9873 94.2008 17.3887 93.6968 17.706C93.2021 18.014 92.5954 18.168 91.8768 18.168ZM91.8068 11.532C91.4988 11.532 91.2141 11.588 90.9528 11.7C90.6914 11.812 90.4628 11.966 90.2668 12.162C90.0801 12.358 89.9308 12.5913 89.8188 12.862C89.7161 13.1233 89.6648 13.4127 89.6648 13.73V13.828H93.8088V13.674C93.8088 13.3567 93.7574 13.0673 93.6548 12.806C93.5614 12.5447 93.4261 12.3207 93.2488 12.134C93.0808 11.938 92.8708 11.7887 92.6188 11.686C92.3761 11.5833 92.1054 11.532 91.8068 11.532ZM97.0233 17.048H99.1373V11.728H97.0233V10.776H100.257V12.596H100.327C100.477 12.0267 100.757 11.5833 101.167 11.266C101.587 10.9393 102.119 10.776 102.763 10.776H103.771V11.896H102.413C101.769 11.896 101.247 12.0827 100.845 12.456C100.453 12.8293 100.257 13.3193 100.257 13.926V17.048H103.057V18H97.0233V17.048Z" fill="#004A50"/>
<rect x="129" width="66" height="26" rx="13" fill="#B8D2C3"/>
<path d="M143.072 14.976H141.224V14.052H143.24L143.562 12.176H141.728V11.252H143.73L144.262 8.228H145.284L143.562 18H142.54L143.072 14.976ZM146.838 8.228H147.86L147.328 11.252H149.176V12.176H147.16L146.838 14.052H148.672V14.976H146.67L146.138 18H145.116L146.838 8.228ZM153.917 18.168C152.722 18.168 151.831 17.734 151.243 16.866C150.664 15.998 150.375 14.7473 150.375 13.114C150.375 11.4807 150.664 10.23 151.243 9.362C151.831 8.494 152.722 8.06 153.917 8.06C154.365 8.06 154.752 8.12067 155.079 8.242C155.405 8.36333 155.685 8.52667 155.919 8.732C156.152 8.93733 156.348 9.17067 156.507 9.432C156.665 9.684 156.805 9.94067 156.927 10.202L155.919 10.664C155.835 10.4493 155.737 10.2487 155.625 10.062C155.513 9.866 155.377 9.698 155.219 9.558C155.069 9.40867 154.887 9.292 154.673 9.208C154.467 9.124 154.215 9.082 153.917 9.082C153.142 9.082 152.563 9.376 152.181 9.964C151.807 10.552 151.621 11.336 151.621 12.316V13.912C151.621 14.892 151.807 15.676 152.181 16.264C152.563 16.852 153.142 17.146 153.917 17.146C154.215 17.146 154.467 17.104 154.673 17.02C154.887 16.936 155.069 16.824 155.219 16.684C155.377 16.5347 155.513 16.3667 155.625 16.18C155.737 15.984 155.835 15.7787 155.919 15.564L156.927 16.026C156.805 16.2967 156.665 16.558 156.507 16.81C156.348 17.062 156.152 17.2907 155.919 17.496C155.685 17.7013 155.405 17.8647 155.079 17.986C154.752 18.1073 154.365 18.168 153.917 18.168ZM164.719 18C164.28 18 163.968 17.888 163.781 17.664C163.594 17.44 163.478 17.16 163.431 16.824H163.361C163.202 17.244 162.946 17.5753 162.591 17.818C162.246 18.0513 161.779 18.168 161.191 18.168C160.435 18.168 159.833 17.972 159.385 17.58C158.937 17.188 158.713 16.6513 158.713 15.97C158.713 15.298 158.956 14.78 159.441 14.416C159.936 14.052 160.729 13.87 161.821 13.87H163.361V13.156C163.361 12.624 163.212 12.2273 162.913 11.966C162.614 11.6953 162.19 11.56 161.639 11.56C161.154 11.56 160.757 11.658 160.449 11.854C160.141 12.0407 159.894 12.2973 159.707 12.624L158.951 12.064C159.044 11.8773 159.17 11.6953 159.329 11.518C159.488 11.3407 159.684 11.1867 159.917 11.056C160.15 10.916 160.416 10.8087 160.715 10.734C161.014 10.65 161.345 10.608 161.709 10.608C162.558 10.608 163.23 10.8227 163.725 11.252C164.229 11.6813 164.481 12.2787 164.481 13.044V17.02H165.489V18H164.719ZM161.387 17.23C161.676 17.23 161.938 17.1973 162.171 17.132C162.414 17.0573 162.624 16.964 162.801 16.852C162.978 16.7307 163.114 16.5907 163.207 16.432C163.31 16.264 163.361 16.0867 163.361 15.9V14.71H161.821C161.149 14.71 160.659 14.8033 160.351 14.99C160.043 15.1767 159.889 15.4473 159.889 15.802V16.096C159.889 16.4693 160.02 16.754 160.281 16.95C160.552 17.1367 160.92 17.23 161.387 17.23ZM167.304 17.048H169.824V8.592H167.304V7.64H170.944V17.048H173.464V18H167.304V17.048ZM175.334 18V10.776H176.37V11.616H176.426C176.538 11.336 176.697 11.098 176.902 10.902C177.107 10.706 177.411 10.608 177.812 10.608C178.232 10.608 178.545 10.7153 178.75 10.93C178.955 11.1353 179.081 11.406 179.128 11.742H179.17C179.301 11.4153 179.487 11.1447 179.73 10.93C179.973 10.7153 180.309 10.608 180.738 10.608C181.326 10.608 181.718 10.8133 181.914 11.224C182.119 11.6347 182.222 12.2227 182.222 12.988V18H181.186V13.17C181.186 12.554 181.121 12.1293 180.99 11.896C180.869 11.6533 180.64 11.532 180.304 11.532C180.005 11.532 179.763 11.63 179.576 11.826C179.389 12.0127 179.296 12.302 179.296 12.694V18H178.26V13.17C178.26 12.554 178.195 12.1293 178.064 11.896C177.943 11.6533 177.719 11.532 177.392 11.532C177.093 11.532 176.846 11.63 176.65 11.826C176.463 12.0127 176.37 12.302 176.37 12.694V18H175.334Z" fill="#004A50"/>
<rect y="38" width="66" height="26" rx="13" fill="#B8D2C3"/>
<path d="M14.072 52.976H12.224V52.052H14.24L14.562 50.176H12.728V49.252H14.73L15.262 46.228H16.284L14.562 56H13.54L14.072 52.976ZM17.838 46.228H18.86L18.328 49.252H20.176V50.176H18.16L17.838 52.052H19.672V52.976H17.67L17.138 56H16.116L17.838 46.228ZM24.9165 56.168C23.7219 56.168 22.8305 55.734 22.2425 54.866C21.6639 53.998 21.3745 52.7473 21.3745 51.114C21.3745 49.4807 21.6639 48.23 22.2425 47.362C22.8305 46.494 23.7219 46.06 24.9165 46.06C25.3645 46.06 25.7519 46.1207 26.0785 46.242C26.4052 46.3633 26.6852 46.5267 26.9185 46.732C27.1519 46.9373 27.3479 47.1707 27.5065 47.432C27.6652 47.684 27.8052 47.9407 27.9265 48.202L26.9185 48.664C26.8345 48.4493 26.7365 48.2487 26.6245 48.062C26.5125 47.866 26.3772 47.698 26.2185 47.558C26.0692 47.4087 25.8872 47.292 25.6725 47.208C25.4672 47.124 25.2152 47.082 24.9165 47.082C24.1419 47.082 23.5632 47.376 23.1805 47.964C22.8072 48.552 22.6205 49.336 22.6205 50.316V51.912C22.6205 52.892 22.8072 53.676 23.1805 54.264C23.5632 54.852 24.1419 55.146 24.9165 55.146C25.2152 55.146 25.4672 55.104 25.6725 55.02C25.8872 54.936 26.0692 54.824 26.2185 54.684C26.3772 54.5347 26.5125 54.3667 26.6245 54.18C26.7365 53.984 26.8345 53.7787 26.9185 53.564L27.9265 54.026C27.8052 54.2967 27.6652 54.558 27.5065 54.81C27.3479 55.062 27.1519 55.2907 26.9185 55.496C26.6852 55.7013 26.4052 55.8647 26.0785 55.986C25.7519 56.1073 25.3645 56.168 24.9165 56.168ZM35.7191 56C35.2804 56 34.9677 55.888 34.7811 55.664C34.5944 55.44 34.4777 55.16 34.4311 54.824H34.3611C34.2024 55.244 33.9457 55.5753 33.5911 55.818C33.2457 56.0513 32.7791 56.168 32.1911 56.168C31.4351 56.168 30.8331 55.972 30.3851 55.58C29.9371 55.188 29.7131 54.6513 29.7131 53.97C29.7131 53.298 29.9557 52.78 30.4411 52.416C30.9357 52.052 31.7291 51.87 32.8211 51.87H34.3611V51.156C34.3611 50.624 34.2117 50.2273 33.9131 49.966C33.6144 49.6953 33.1897 49.56 32.6391 49.56C32.1537 49.56 31.7571 49.658 31.4491 49.854C31.1411 50.0407 30.8937 50.2973 30.7071 50.624L29.9511 50.064C30.0444 49.8773 30.1704 49.6953 30.3291 49.518C30.4877 49.3407 30.6837 49.1867 30.9171 49.056C31.1504 48.916 31.4164 48.8087 31.7151 48.734C32.0137 48.65 32.3451 48.608 32.7091 48.608C33.5584 48.608 34.2304 48.8227 34.7251 49.252C35.2291 49.6813 35.4811 50.2787 35.4811 51.044V55.02H36.4891V56H35.7191ZM32.3871 55.23C32.6764 55.23 32.9377 55.1973 33.1711 55.132C33.4137 55.0573 33.6237 54.964 33.8011 54.852C33.9784 54.7307 34.1137 54.5907 34.2071 54.432C34.3097 54.264 34.3611 54.0867 34.3611 53.9V52.71H32.8211C32.1491 52.71 31.6591 52.8033 31.3511 52.99C31.0431 53.1767 30.8891 53.4473 30.8891 53.802V54.096C30.8891 54.4693 31.0197 54.754 31.2811 54.95C31.5517 55.1367 31.9204 55.23 32.3871 55.23ZM38.3036 55.048H40.8236V46.592H38.3036V45.64H41.9436V55.048H44.4636V56H38.3036V55.048ZM46.3341 56V48.776H47.3701V49.616H47.4261C47.5381 49.336 47.6968 49.098 47.9021 48.902C48.1075 48.706 48.4108 48.608 48.8121 48.608C49.2321 48.608 49.5448 48.7153 49.7501 48.93C49.9555 49.1353 50.0815 49.406 50.1281 49.742H50.1701C50.3008 49.4153 50.4875 49.1447 50.7301 48.93C50.9728 48.7153 51.3088 48.608 51.7381 48.608C52.3261 48.608 52.7181 48.8133 52.9141 49.224C53.1195 49.6347 53.2221 50.2227 53.2221 50.988V56H52.1861V51.17C52.1861 50.554 52.1208 50.1293 51.9901 49.896C51.8688 49.6533 51.6401 49.532 51.3041 49.532C51.0055 49.532 50.7628 49.63 50.5761 49.826C50.3895 50.0127 50.2961 50.302 50.2961 50.694V56H49.2601V51.17C49.2601 50.554 49.1948 50.1293 49.0641 49.896C48.9428 49.6533 48.7188 49.532 48.3921 49.532C48.0935 49.532 47.8461 49.63 47.6501 49.826C47.4635 50.0127 47.3701 50.302 47.3701 50.694V56H46.3341Z" fill="#004A50"/>
<rect x="78" y="38" width="142" height="26" rx="13" fill="#B8D2C3"/>
<path d="M92.072 52.976H90.224V52.052H92.24L92.562 50.176H90.728V49.252H92.73L93.262 46.228H94.284L92.562 56H91.54L92.072 52.976ZM95.838 46.228H96.86L96.328 49.252H98.176V50.176H96.16L95.838 52.052H97.672V52.976H95.67L95.138 56H94.116L95.838 46.228ZM103.183 47.25V56H102.007V47.25H98.7445V46.228H106.445V47.25H103.183ZM110.989 56.168C110.485 56.168 110.028 56.0793 109.617 55.902C109.216 55.7247 108.87 55.4727 108.581 55.146C108.301 54.81 108.086 54.4133 107.937 53.956C107.788 53.4893 107.713 52.9667 107.713 52.388C107.713 51.8187 107.788 51.3007 107.937 50.834C108.086 50.3673 108.301 49.9707 108.581 49.644C108.87 49.308 109.216 49.0513 109.617 48.874C110.028 48.6967 110.485 48.608 110.989 48.608C111.493 48.608 111.946 48.6967 112.347 48.874C112.758 49.0513 113.103 49.308 113.383 49.644C113.672 49.9707 113.892 50.3673 114.041 50.834C114.19 51.3007 114.265 51.8187 114.265 52.388C114.265 52.9667 114.19 53.4893 114.041 53.956C113.892 54.4133 113.672 54.81 113.383 55.146C113.103 55.4727 112.758 55.7247 112.347 55.902C111.946 56.0793 111.493 56.168 110.989 56.168ZM110.989 55.202C111.614 55.202 112.118 55.0153 112.501 54.642C112.884 54.2687 113.075 53.69 113.075 52.906V51.87C113.075 51.086 112.884 50.5073 112.501 50.134C112.118 49.7607 111.614 49.574 110.989 49.574C110.364 49.574 109.86 49.7607 109.477 50.134C109.094 50.5073 108.903 51.086 108.903 51.87V52.906C108.903 53.69 109.094 54.2687 109.477 54.642C109.86 55.0153 110.364 55.202 110.989 55.202ZM119.384 56.168C118.88 56.168 118.422 56.0793 118.012 55.902C117.61 55.7247 117.265 55.4727 116.976 55.146C116.696 54.81 116.481 54.4133 116.332 53.956C116.182 53.4893 116.108 52.9667 116.108 52.388C116.108 51.8187 116.182 51.3007 116.332 50.834C116.481 50.3673 116.696 49.9707 116.976 49.644C117.265 49.308 117.61 49.0513 118.012 48.874C118.422 48.6967 118.88 48.608 119.384 48.608C119.888 48.608 120.34 48.6967 120.742 48.874C121.152 49.0513 121.498 49.308 121.778 49.644C122.067 49.9707 122.286 50.3673 122.436 50.834C122.585 51.3007 122.66 51.8187 122.66 52.388C122.66 52.9667 122.585 53.4893 122.436 53.956C122.286 54.4133 122.067 54.81 121.778 55.146C121.498 55.4727 121.152 55.7247 120.742 55.902C120.34 56.0793 119.888 56.168 119.384 56.168ZM119.384 55.202C120.009 55.202 120.513 55.0153 120.896 54.642C121.278 54.2687 121.47 53.69 121.47 52.906V51.87C121.47 51.086 121.278 50.5073 120.896 50.134C120.513 49.7607 120.009 49.574 119.384 49.574C118.758 49.574 118.254 49.7607 117.872 50.134C117.489 50.5073 117.298 51.086 117.298 51.87V52.906C117.298 53.69 117.489 54.2687 117.872 54.642C118.254 55.0153 118.758 55.202 119.384 55.202ZM129.948 51.1V48.006H129.836L127.778 53.032L125.72 48.006H125.608V51.1V56H124.53V46.228H126.042L127.764 50.54H127.848L129.57 46.228H131.026V56H129.948V51.1ZM137.881 54.824H137.825C137.75 55.0013 137.657 55.174 137.545 55.342C137.433 55.5007 137.293 55.6407 137.125 55.762C136.966 55.8833 136.775 55.9813 136.551 56.056C136.327 56.1307 136.065 56.168 135.767 56.168C135.011 56.168 134.404 55.93 133.947 55.454C133.489 54.9687 133.261 54.2873 133.261 53.41V48.776H134.381V53.214C134.381 53.8767 134.525 54.3713 134.815 54.698C135.104 55.0153 135.529 55.174 136.089 55.174C136.313 55.174 136.532 55.146 136.747 55.09C136.961 55.034 137.153 54.95 137.321 54.838C137.489 54.726 137.624 54.586 137.727 54.418C137.829 54.2407 137.881 54.0307 137.881 53.788V48.776H139.001V56H137.881V54.824ZM144.819 56.168C144.297 56.168 143.83 56.0793 143.419 55.902C143.018 55.7153 142.677 55.4587 142.397 55.132C142.117 54.8053 141.903 54.4087 141.753 53.942C141.613 53.4753 141.543 52.9573 141.543 52.388C141.543 51.8187 141.618 51.3007 141.767 50.834C141.917 50.3673 142.131 49.9707 142.411 49.644C142.691 49.308 143.032 49.0513 143.433 48.874C143.835 48.6967 144.292 48.608 144.805 48.608C145.505 48.608 146.075 48.762 146.513 49.07C146.952 49.378 147.274 49.7793 147.479 50.274L146.583 50.75C146.453 50.3767 146.233 50.0873 145.925 49.882C145.627 49.6767 145.253 49.574 144.805 49.574C144.479 49.574 144.185 49.63 143.923 49.742C143.671 49.8447 143.457 49.994 143.279 50.19C143.102 50.386 142.967 50.6193 142.873 50.89C142.789 51.1607 142.747 51.4547 142.747 51.772V53.004C142.747 53.3213 142.789 53.6153 142.873 53.886C142.967 54.1567 143.102 54.39 143.279 54.586C143.457 54.782 143.676 54.936 143.937 55.048C144.199 55.1507 144.497 55.202 144.833 55.202C145.319 55.202 145.72 55.09 146.037 54.866C146.355 54.642 146.607 54.334 146.793 53.942L147.591 54.488C147.377 54.9733 147.041 55.3747 146.583 55.692C146.135 56.0093 145.547 56.168 144.819 56.168ZM150.134 45.64H151.254V49.952H151.31C151.384 49.7747 151.478 49.6067 151.59 49.448C151.702 49.28 151.837 49.1353 151.996 49.014C152.164 48.8927 152.36 48.7947 152.584 48.72C152.808 48.6453 153.069 48.608 153.368 48.608C154.124 48.608 154.73 48.8507 155.188 49.336C155.645 49.812 155.874 50.4887 155.874 51.366V56H154.754V51.562C154.754 50.8993 154.609 50.4093 154.32 50.092C154.03 49.7653 153.606 49.602 153.046 49.602C152.822 49.602 152.602 49.63 152.388 49.686C152.173 49.742 151.982 49.826 151.814 49.938C151.646 50.05 151.51 50.1947 151.408 50.372C151.305 50.5493 151.254 50.7547 151.254 50.988V56H150.134V45.64ZM161.944 47.25V56H160.768V47.25H157.506V46.228H165.206V47.25H161.944ZM172.481 56C172.042 56 171.729 55.888 171.543 55.664C171.356 55.44 171.239 55.16 171.193 54.824H171.123C170.964 55.244 170.707 55.5753 170.353 55.818C170.007 56.0513 169.541 56.168 168.953 56.168C168.197 56.168 167.595 55.972 167.147 55.58C166.699 55.188 166.475 54.6513 166.475 53.97C166.475 53.298 166.717 52.78 167.203 52.416C167.697 52.052 168.491 51.87 169.583 51.87H171.123V51.156C171.123 50.624 170.973 50.2273 170.675 49.966C170.376 49.6953 169.951 49.56 169.401 49.56C168.915 49.56 168.519 49.658 168.211 49.854C167.903 50.0407 167.655 50.2973 167.469 50.624L166.713 50.064C166.806 49.8773 166.932 49.6953 167.091 49.518C167.249 49.3407 167.445 49.1867 167.679 49.056C167.912 48.916 168.178 48.8087 168.477 48.734C168.775 48.65 169.107 48.608 169.471 48.608C170.32 48.608 170.992 48.8227 171.487 49.252C171.991 49.6813 172.243 50.2787 172.243 51.044V55.02H173.251V56H172.481ZM169.149 55.23C169.438 55.23 169.699 55.1973 169.933 55.132C170.175 55.0573 170.385 54.964 170.563 54.852C170.74 54.7307 170.875 54.5907 170.969 54.432C171.071 54.264 171.123 54.0867 171.123 53.9V52.71H169.583C168.911 52.71 168.421 52.8033 168.113 52.99C167.805 53.1767 167.651 53.4473 167.651 53.802V54.096C167.651 54.4693 167.781 54.754 168.043 54.95C168.313 55.1367 168.682 55.23 169.149 55.23ZM175.065 55.048H177.585V46.592H175.065V45.64H178.705V55.048H181.225V56H175.065V55.048ZM183.81 45.64H184.93V52.178H184.986L186.246 50.988L188.654 48.776H190.026L187.03 51.604L190.376 56H188.99L186.176 52.248L184.93 53.382V56H183.81V45.64ZM195.06 56.168C194.538 56.168 194.066 56.0793 193.646 55.902C193.236 55.7247 192.881 55.4727 192.582 55.146C192.293 54.81 192.069 54.4133 191.91 53.956C191.752 53.4893 191.672 52.9713 191.672 52.402C191.672 51.8233 191.752 51.3007 191.91 50.834C192.078 50.3673 192.307 49.9707 192.596 49.644C192.886 49.308 193.231 49.0513 193.632 48.874C194.043 48.6967 194.496 48.608 194.99 48.608C195.476 48.608 195.914 48.6967 196.306 48.874C196.708 49.0513 197.048 49.2987 197.328 49.616C197.608 49.924 197.823 50.2927 197.972 50.722C198.122 51.1513 198.196 51.6227 198.196 52.136V52.668H192.848V53.004C192.848 53.3213 192.9 53.6153 193.002 53.886C193.105 54.1567 193.25 54.39 193.436 54.586C193.632 54.782 193.866 54.936 194.136 55.048C194.416 55.1507 194.724 55.202 195.06 55.202C195.546 55.202 195.966 55.09 196.32 54.866C196.675 54.642 196.946 54.334 197.132 53.942L197.958 54.502C197.744 54.9873 197.384 55.3887 196.88 55.706C196.386 56.014 195.779 56.168 195.06 56.168ZM194.99 49.532C194.682 49.532 194.398 49.588 194.136 49.7C193.875 49.812 193.646 49.966 193.45 50.162C193.264 50.358 193.114 50.5913 193.002 50.862C192.9 51.1233 192.848 51.4127 192.848 51.73V51.828H196.992V51.674C196.992 51.3567 196.941 51.0673 196.838 50.806C196.745 50.5447 196.61 50.3207 196.432 50.134C196.264 49.938 196.054 49.7887 195.802 49.686C195.56 49.5833 195.289 49.532 194.99 49.532ZM200.207 55.048H202.321V49.728H200.207V48.776H203.441V50.596H203.511C203.66 50.0267 203.94 49.5833 204.351 49.266C204.771 48.9393 205.303 48.776 205.947 48.776H206.955V49.896H205.597C204.953 49.896 204.43 50.0827 204.029 50.456C203.637 50.8293 203.441 51.3193 203.441 51.926V55.048H206.241V56H200.207V55.048Z" fill="#004A50"/>
</svg>
