<svg width="149" height="26" viewBox="0 0 149 26" fill="none" xmlns="http://www.w3.org/2000/svg">
<path d="M0.625 13C0.625 5.8203 6.4453 0 13.625 0H136C143.18 0 149 5.8203 149 13C149 20.1797 143.18 26 136 26H13.625C6.4453 26 0.625 20.1797 0.625 13Z" fill="#B8D2C3"/>
<g clip-path="url(#clip0_26_1754)">
<path d="M20.9555 10.1788C20.9893 10.2567 21.0984 10.2595 21.1354 10.183C21.3333 9.77426 21.495 9.40979 21.6984 9.07011C22.5815 7.59702 23.9225 6.93756 25.6262 7.01709C27.186 7.08989 28.438 7.73222 29.0869 9.19674C29.7951 10.7958 29.8136 13.5138 27.3442 14.7673C26.2498 15.3228 25.1232 15.8164 24.0325 16.378C22.8899 16.9664 21.8444 17.6815 21.1518 18.8474C21.1123 18.9139 21.0148 18.9156 20.9733 18.8503C19.9397 17.2247 18.3071 16.4426 16.6483 15.6825C15.8357 15.3099 15.0274 14.9123 14.2673 14.4461C12.9399 13.6325 12.5808 12.3368 12.6296 10.8845C12.7106 8.48038 14.342 7.28931 16.0062 7.05257C18.0863 6.75648 19.8636 7.72182 20.7368 9.67818C20.8065 9.83449 20.8744 9.99149 20.9555 10.1788Z" fill="#004A50"/>
</g>
<g clip-path="url(#clip1_26_1754)">
<path d="M50.6786 15.9335L50.6786 15.9335C51.2322 15.6484 51.7935 15.3813 52.3477 15.1186L52.4268 15.0811C52.9562 14.8301 53.4785 14.5825 53.9929 14.3214C55.0791 13.7701 55.6049 12.9122 55.7926 12.0098C55.9842 11.0888 55.8221 10.1158 55.5047 9.39921C54.9508 8.14917 53.8983 7.58283 52.4779 7.51654L52.5012 7.01709L52.4779 7.51654C50.945 7.44499 49.7843 8.02282 49.0024 9.32699C48.8571 9.5695 48.7372 9.82129 48.5946 10.1207C48.5523 10.2096 48.508 10.3026 48.4604 10.4009C48.235 10.8666 47.5736 10.8437 47.3717 10.3775L47.8305 10.1788L47.3717 10.3775L47.3624 10.356C47.2852 10.1778 47.221 10.0294 47.1552 9.88197L50.6786 15.9335ZM50.6786 15.9335C49.6633 16.4564 48.6713 17.1015 47.928 18.0963M50.6786 15.9335L47.928 18.0963M41.4036 14.0198L41.4037 14.0199C42.1385 14.4706 42.9258 14.8585 43.7316 15.2279L41.4036 14.0198ZM41.4036 14.0198C40.2916 13.3382 39.9587 12.2607 40.0044 10.9014L41.4036 14.0198ZM42.9517 7.54758L42.9517 7.54759C42.2092 7.6532 41.4909 7.9696 40.9533 8.5088C40.4223 9.04139 40.0409 9.81748 40.0044 10.9013L42.9517 7.54758ZM42.9517 7.54758C44.8112 7.28289 46.3731 8.12981 47.1551 9.88172L42.9517 7.54758ZM47.928 18.0963C46.8067 16.6553 45.2181 15.9091 43.7317 15.228L47.928 18.0963Z" stroke="#004A50"/>
</g>
<g clip-path="url(#clip2_26_1754)">
<path d="M77.5536 15.9335L77.5536 15.9335C78.1072 15.6484 78.6685 15.3813 79.2227 15.1186L79.3018 15.0811C79.8312 14.8301 80.3535 14.5825 80.8679 14.3214C81.9541 13.7701 82.4799 12.9122 82.6676 12.0098C82.8592 11.0888 82.6971 10.1158 82.3797 9.39921C81.8258 8.14917 80.7733 7.58283 79.3529 7.51654L79.3762 7.01709L79.3529 7.51654C77.82 7.44499 76.6593 8.02282 75.8774 9.32699C75.7321 9.5695 75.6122 9.82129 75.4696 10.1207C75.4273 10.2096 75.383 10.3026 75.3354 10.4009C75.11 10.8666 74.4486 10.8437 74.2467 10.3775L74.7055 10.1788L74.2467 10.3775L74.2374 10.356C74.1602 10.1778 74.096 10.0294 74.0302 9.88197L77.5536 15.9335ZM77.5536 15.9335C76.5383 16.4564 75.5463 17.1015 74.803 18.0963M77.5536 15.9335L74.803 18.0963M68.2786 14.0198L68.2787 14.0199C69.0135 14.4706 69.8008 14.8585 70.6066 15.2279L68.2786 14.0198ZM68.2786 14.0198C67.1666 13.3382 66.8337 12.2607 66.8794 10.9014L68.2786 14.0198ZM69.8267 7.54758L69.8267 7.54759C69.0842 7.6532 68.3659 7.9696 67.8283 8.5088C67.2973 9.04139 66.9159 9.81748 66.8794 10.9013L69.8267 7.54758ZM69.8267 7.54758C71.6862 7.28289 73.2481 8.12981 74.0301 9.88172L69.8267 7.54758ZM74.803 18.0963C73.6817 16.6553 72.0931 15.9091 70.6067 15.228L74.803 18.0963Z" stroke="#004A50"/>
</g>
<g clip-path="url(#clip3_26_1754)">
<path d="M104.429 15.9335L104.429 15.9335C104.982 15.6484 105.544 15.3813 106.098 15.1186L106.177 15.0811C106.706 14.8301 107.228 14.5825 107.743 14.3214C108.829 13.7701 109.355 12.9122 109.543 12.0098C109.734 11.0888 109.572 10.1158 109.255 9.39921C108.701 8.14917 107.648 7.58283 106.228 7.51654L106.251 7.01709L106.228 7.51654C104.695 7.44499 103.534 8.02282 102.752 9.32699C102.607 9.5695 102.487 9.82129 102.345 10.1207C102.302 10.2096 102.258 10.3026 102.21 10.4009C101.985 10.8666 101.324 10.8437 101.122 10.3775L101.581 10.1788L101.122 10.3775L101.112 10.356C101.035 10.1778 100.971 10.0294 100.905 9.88197L104.429 15.9335ZM104.429 15.9335C103.413 16.4564 102.421 17.1015 101.678 18.0963M104.429 15.9335L101.678 18.0963M95.1536 14.0198L95.1537 14.0199C95.8885 14.4706 96.6758 14.8585 97.4816 15.2279L95.1536 14.0198ZM95.1536 14.0198C94.0416 13.3382 93.7087 12.2607 93.7544 10.9014L95.1536 14.0198ZM96.7017 7.54758L96.7017 7.54759C95.9592 7.6532 95.2409 7.9696 94.7033 8.5088C94.1723 9.04139 93.7909 9.81748 93.7544 10.9013L96.7017 7.54758ZM96.7017 7.54758C98.5612 7.28289 100.123 8.12981 100.905 9.88172L96.7017 7.54758ZM101.678 18.0963C100.557 16.6553 98.9681 15.9091 97.4817 15.228L101.678 18.0963Z" stroke="#004A50"/>
</g>
<g clip-path="url(#clip4_26_1754)">
<path d="M131.304 15.9335L131.304 15.9335C131.857 15.6484 132.419 15.3813 132.973 15.1186L133.052 15.0811C133.581 14.8301 134.103 14.5825 134.618 14.3214C135.704 13.7701 136.23 12.9122 136.418 12.0098C136.609 11.0888 136.447 10.1158 136.13 9.39921C135.576 8.14917 134.523 7.58283 133.103 7.51654L133.126 7.01709L133.103 7.51654C131.57 7.44499 130.409 8.02282 129.627 9.32699C129.482 9.5695 129.362 9.82129 129.22 10.1207C129.177 10.2096 129.133 10.3026 129.085 10.4009C128.86 10.8666 128.199 10.8437 127.997 10.3775L128.456 10.1788L127.997 10.3775L127.987 10.356C127.91 10.1778 127.846 10.0294 127.78 9.88197L131.304 15.9335ZM131.304 15.9335C130.288 16.4564 129.296 17.1015 128.553 18.0963M131.304 15.9335L128.553 18.0963M122.029 14.0198L122.029 14.0199C122.764 14.4706 123.551 14.8585 124.357 15.2279L122.029 14.0198ZM122.029 14.0198C120.917 13.3382 120.584 12.2607 120.629 10.9014L122.029 14.0198ZM123.577 7.54758L123.577 7.54759C122.834 7.6532 122.116 7.9696 121.578 8.5088C121.047 9.04139 120.666 9.81748 120.629 10.9013L123.577 7.54758ZM123.577 7.54758C125.436 7.28289 126.998 8.12981 127.78 9.88172L123.577 7.54758ZM128.553 18.0963C127.432 16.6553 125.843 15.9091 124.357 15.228L128.553 18.0963Z" stroke="#004A50"/>
</g>
<defs>
<clipPath id="clip0_26_1754">
<rect width="16.875" height="12" fill="white" transform="translate(12.625 7)"/>
</clipPath>
<clipPath id="clip1_26_1754">
<rect width="16.875" height="12" fill="white" transform="translate(39.5 7)"/>
</clipPath>
<clipPath id="clip2_26_1754">
<rect width="16.875" height="12" fill="white" transform="translate(66.375 7)"/>
</clipPath>
<clipPath id="clip3_26_1754">
<rect width="16.875" height="12" fill="white" transform="translate(93.25 7)"/>
</clipPath>
<clipPath id="clip4_26_1754">
<rect width="16.875" height="12" fill="white" transform="translate(120.125 7)"/>
</clipPath>
</defs>
</svg>
