<svg width="64" height="64" viewBox="0 0 64 64" fill="none" xmlns="http://www.w3.org/2000/svg">
<path d="M49.3915 25.0446V19.8272H46.7827V17.2184H44.174V14.6097H38.9565V12.001H25.0437V14.6097H19.8263V17.2184H17.2175V19.8272H14.6088V25.0446H12.0001V33.74H14.6088V36.3487H24.1737V49.3924H26.7825V52.0007H37.2174V49.3924H39.8261V36.3487H49.3915V33.74H51.9998V25.0446H49.3915Z" fill="#FF5650"/>
<path d="M29.3912 24.1747H26.7824V21.5664H22.435V24.1747H19.8262V28.5226H22.435V31.1313H26.7824V28.5226H29.3912V24.1747Z" fill="white"/>
<path d="M41.5652 14.6097H38.9565V12.001H31.9998V14.6097H29.3911V21.5663H31.9998V24.1746H38.9565V21.5663H41.5652V14.6097Z" fill="white"/>
<path d="M39.8261 33.7402H24.1737V49.3926H26.7824V52.0009H37.2174V49.3926H39.8261V33.7402Z" fill="#FFF5CC"/>
<path d="M19.8263 17.2188H17.2176V19.8275H19.8263V17.2188Z" fill="black"/>
<path d="M25.0438 14.6097H38.9566V17.2184H44.174V14.6097H38.9566V12.001H25.0438V14.6097H19.8263V17.2184H25.0438V14.6097Z" fill="black"/>
<path d="M39.8261 33.74H37.2174H26.7825H24.1737H14.6088V25.0446H17.2175V19.8271H14.6088V25.0446H12.0001V33.74H14.6088V36.3487H24.1737V49.3924H26.7825V36.3487H37.2174V49.3924H26.7825V52.0007H37.2174V49.3924H39.8261V36.3487H49.3915V33.74H39.8261Z" fill="black"/>
<path d="M49.3916 25.0446V19.8271H46.7828V25.0446H49.3916V33.74H51.9999V25.0446H49.3916Z" fill="black"/>
<path d="M46.7826 17.2188H44.1739V19.8275H46.7826V17.2188Z" fill="black"/>
</svg>
