<svg width="126" height="147" viewBox="0 0 126 147" fill="none" xmlns="http://www.w3.org/2000/svg">
<rect width="126" height="146.16" rx="17.64" fill="#B8D2C3"/>
<path d="M89.0871 62.6456V54.8194H85.174V50.9063H81.2609V46.9932H73.4347V43.0801H52.5655V46.9932H44.7393V50.9063H40.8262V54.8194H36.9131V62.6456H33V75.6886H36.9131V79.6017H51.2605V99.1672H55.1736V103.08H70.826V99.1672H74.7391V79.6017H89.0871V75.6886H92.9996V62.6456H89.0871Z" fill="#FF5650"/>
<path d="M59.0867 61.3402H55.1736V57.4277H48.6524V61.3402H44.7393V67.862H48.6524V71.7751H55.1736V67.862H59.0867V61.3402Z" fill="white"/>
<path d="M77.3478 46.9932H73.4347V43.0801H62.9998V46.9932H59.0867V57.4281H62.9998V61.3406H73.4347V57.4281H77.3478V46.9932Z" fill="white"/>
<path d="M74.7391 75.6885H51.2605V99.1671H55.1736V103.08H70.826V99.1671H74.7391V75.6885Z" fill="#FFF5CC"/>
<path d="M44.7393 50.9062H40.8262V54.8193H44.7393V50.9062Z" fill="black"/>
<path d="M52.5655 46.9932H73.4347V50.9063H81.2609V46.9932H73.4347V43.0801H52.5655V46.9932H44.7393V50.9063H52.5655V46.9932Z" fill="black"/>
<path d="M74.7391 75.6895H70.826H55.1736H51.2605H36.9131V62.6465H40.8262V54.8203H36.9131V62.6465H33V75.6895H36.9131V79.6026H51.2605V99.1681H55.1736V79.6026H70.826V99.1681H55.1736V103.081H70.826V99.1681H74.7391V79.6026H89.0871V75.6895H74.7391Z" fill="black"/>
<path d="M89.0872 62.6465V54.8203H85.1741V62.6465H89.0872V75.6895H92.9996V62.6465H89.0872Z" fill="black"/>
<path d="M85.1738 50.9062H81.2607V54.8193H85.1738V50.9062Z" fill="black"/>
</svg>
