<svg width="64" height="64" viewBox="0 0 64 64" fill="none" xmlns="http://www.w3.org/2000/svg">
<path d="M44.1873 17.2174H41.5757V14.6087H38.9641V12H25.0359V14.6087H22.4242V17.2174H19.8126V41.5651H22.4242V44.1738H27.6475V49.3912H30.2591V51.9995H33.7408V49.3912H36.3525V44.1738H41.5757V41.5651H44.1873V17.2174Z" fill="#FFB655"/>
<path d="M44.1873 17.2174H41.5757V14.6087H38.9641V12H25.0359V14.6087H22.4242V17.2174H19.8126V41.5651H22.4242V44.1738H41.5757V41.5651H44.1873V17.2174Z" fill="#BA81E7"/>
<path d="M38.9641 12H25.0359V14.6087H38.9641V12Z" fill="black"/>
<path d="M25.0359 14.6084H22.4243V17.2171H25.0359V14.6084Z" fill="black"/>
<path d="M41.5756 14.6084H38.9639V17.2171H41.5756V14.6084Z" fill="black"/>
<path d="M44.1873 17.2178H41.5757V41.5654H44.1873V17.2178Z" fill="black"/>
<path d="M22.4242 17.2178H19.8126V41.5654H22.4242V17.2178Z" fill="black"/>
<path d="M33.7409 41.5654H30.2592H27.6476H22.4243V44.1741H27.6476V49.3916H30.2592V44.1741H33.7409V49.3916H36.3525V44.1741H41.5758V41.5654H36.3525H33.7409Z" fill="black"/>
<path d="M33.7411 49.3916H30.259V52.0003H33.7411V49.3916Z" fill="black"/>
<path d="M28.5179 19.8262H25.9063V38.9564H28.5179V19.8262Z" fill="black"/>
<path d="M38.0936 19.8262H35.482V38.9564H38.0936V19.8262Z" fill="black"/>
</svg>
