<svg width="126" height="147" viewBox="0 0 126 147" fill="none" xmlns="http://www.w3.org/2000/svg">
<rect width="126" height="146.16" rx="17.64" fill="#B8D2C3"/>
<path d="M81.2812 50.9063H77.3637V46.9932H73.4462V43.0801H52.5537V46.9932H48.6362V50.9063H44.7188V87.4281H48.6362V91.3412H56.4712V99.1675H60.3886V103.08H65.6113V99.1675H69.5288V91.3412H77.3637V87.4281H81.2812V50.9063Z" fill="#FFB655"/>
<path d="M81.2812 50.9063H77.3637V46.9932H73.4462V43.0801H52.5537V46.9932H48.6362V50.9063H44.7188V87.4281H48.6362V91.3412H77.3637V87.4281H81.2812V50.9063Z" fill="#BA81E7"/>
<path d="M73.4463 43.0801H52.5537V46.9932H73.4463V43.0801Z" fill="black"/>
<path d="M52.5537 46.9932H48.6362V50.9063H52.5537V46.9932Z" fill="black"/>
<path d="M77.3635 46.9932H73.446V50.9063H77.3635V46.9932Z" fill="black"/>
<path d="M81.2812 50.9062H77.3638V87.4281H81.2812V50.9062Z" fill="black"/>
<path d="M48.6362 50.9062H44.7188V87.4281H48.6362V50.9062Z" fill="black"/>
<path d="M65.6113 87.4287H60.3886H56.4712H48.6362V91.3418H56.4712V99.1681H60.3886V91.3418H65.6113V99.1681H69.5288V91.3418H77.3637V87.4287H69.5288H65.6113Z" fill="black"/>
<path d="M65.6117 99.167H60.3884V103.08H65.6117V99.167Z" fill="black"/>
<path d="M57.7768 54.8193H53.8594V83.5149H57.7768V54.8193Z" fill="black"/>
<path d="M72.1406 54.8193H68.2231V83.5149H72.1406V54.8193Z" fill="black"/>
</svg>
