<svg width="126" height="147" viewBox="0 0 126 147" fill="none" xmlns="http://www.w3.org/2000/svg">
<rect width="126" height="146.16" rx="17.64" fill="#B8D2C3"/>
<path d="M58.9622 42.8398H54.9302V46.8718H58.9622V42.8398Z" fill="#004A50"/>
<path d="M63.0193 42.8398H58.9873V46.8718H63.0193V42.8398Z" fill="#004A50"/>
<path d="M67.012 42.8398H62.98V46.8718H67.012V42.8398Z" fill="#004A50"/>
<path d="M71.0701 42.8398H67.0381V46.8718H71.0701V42.8398Z" fill="#004A50"/>
<path d="M50.9236 46.8726H46.8916V50.9045H50.9236V46.8726Z" fill="#004A50"/>
<path d="M54.9404 46.8726H50.9084V50.9045H54.9404V46.8726Z" fill="#004A50"/>
<path d="M75.0981 46.8726H71.0662V50.9045H75.0981V46.8726Z" fill="#004A50"/>
<path d="M79.1077 46.8726H75.0757V50.9045H79.1077V46.8726Z" fill="#004A50"/>
<path d="M42.8445 50.9048H38.8125V54.9368H42.8445V50.9048Z" fill="#004A50"/>
<path d="M46.855 50.9048H42.823V54.9368H46.855V50.9048Z" fill="#004A50"/>
<path d="M83.1777 50.9048H79.1458V54.9368H83.1777V50.9048Z" fill="#004A50"/>
<path d="M87.188 50.9048H83.156V54.9368H87.188V50.9048Z" fill="#004A50"/>
<path d="M38.8164 54.9355H34.7844V58.9675H38.8164V54.9355Z" fill="#004A50"/>
<path d="M91.2163 54.9355H87.1843V58.9675H91.2163V54.9355Z" fill="#004A50"/>
<path d="M38.8164 58.9678H34.7844V62.9998H38.8164V58.9678Z" fill="#004A50"/>
<path d="M91.2163 58.9678H87.1843V62.9998H91.2163V58.9678Z" fill="#004A50"/>
<path d="M34.7642 63H30.7322V67.032H34.7642V63Z" fill="#004A50"/>
<path d="M95.2676 63H91.2356V67.032H95.2676V63Z" fill="#004A50"/>
<path d="M34.7642 67.0317H30.7322V71.0637H34.7642V67.0317Z" fill="#004A50"/>
<path d="M50.9236 67.0317H46.8916V71.0637H50.9236V67.0317Z" fill="#004A50"/>
<path d="M79.1077 67.0317H75.0757V71.0637H79.1077V67.0317Z" fill="#004A50"/>
<path d="M95.2676 67.0317H91.2356V71.0637H95.2676V67.0317Z" fill="#004A50"/>
<path d="M34.7642 71.0645H30.7322V75.0964H34.7642V71.0645Z" fill="#004A50"/>
<path d="M50.9236 71.0645H46.8916V75.0964H50.9236V71.0645Z" fill="#004A50"/>
<path d="M79.1077 71.0645H75.0757V75.0964H79.1077V71.0645Z" fill="#004A50"/>
<path d="M95.2676 71.0645H91.2356V75.0964H95.2676V71.0645Z" fill="#004A50"/>
<path d="M34.7642 75.0952H30.7322V79.1272H34.7642V75.0952Z" fill="#004A50"/>
<path d="M50.9236 75.0952H46.8916V79.1272H50.9236V75.0952Z" fill="#004A50"/>
<path d="M79.1077 75.0952H75.0757V79.1272H79.1077V75.0952Z" fill="#004A50"/>
<path d="M95.2676 75.0952H91.2356V79.1272H95.2676V75.0952Z" fill="#004A50"/>
<path d="M34.7642 79.127H30.7322V83.1589H34.7642V79.127Z" fill="#004A50"/>
<path d="M58.9622 79.127H54.9302V83.1589H58.9622V79.127Z" fill="#004A50"/>
<path d="M71.0701 79.127H67.0381V83.1589H71.0701V79.127Z" fill="#004A50"/>
<path d="M95.2676 79.127H91.2356V83.1589H95.2676V79.127Z" fill="#004A50"/>
<path d="M38.8164 83.1602H34.7844V87.1921H38.8164V83.1602Z" fill="#004A50"/>
<path d="M63.0193 83.1602H58.9873V87.1921H63.0193V83.1602Z" fill="#004A50"/>
<path d="M67.012 83.1602H62.98V87.1921H67.012V83.1602Z" fill="#004A50"/>
<path d="M91.2163 83.1602H87.1843V87.1921H91.2163V83.1602Z" fill="#004A50"/>
<path d="M38.8164 87.1919H34.7844V91.2239H38.8164V87.1919Z" fill="#004A50"/>
<path d="M91.2163 87.1919H87.1843V91.2239H91.2163V87.1919Z" fill="#004A50"/>
<path d="M42.8445 91.2236H38.8125V95.2556H42.8445V91.2236Z" fill="#004A50"/>
<path d="M46.855 91.2236H42.823V95.2556H46.855V91.2236Z" fill="#004A50"/>
<path d="M83.1777 91.2236H79.1458V95.2556H83.1777V91.2236Z" fill="#004A50"/>
<path d="M87.188 91.2236H83.156V95.2556H87.188V91.2236Z" fill="#004A50"/>
<path d="M50.9236 95.2554H46.8916V99.2874H50.9236V95.2554Z" fill="#004A50"/>
<path d="M54.9404 95.2554H50.9084V99.2874H54.9404V95.2554Z" fill="#004A50"/>
<path d="M75.0923 95.2554H71.0603V99.2874H75.0923V95.2554Z" fill="#004A50"/>
<path d="M79.1077 95.2554H75.0757V99.2874H79.1077V95.2554Z" fill="#004A50"/>
<path d="M58.9622 99.2876H54.9302V103.32H58.9622V99.2876Z" fill="#004A50"/>
<path d="M63.0193 99.2876H58.9873V103.32H63.0193V99.2876Z" fill="#004A50"/>
<path d="M67.012 99.2876H62.98V103.32H67.012V99.2876Z" fill="#004A50"/>
<path d="M71.0701 99.2876H67.0381V103.32H71.0701V99.2876Z" fill="#004A50"/>
</svg>
