<svg width="30" height="29" viewBox="0 0 30 29" fill="none" xmlns="http://www.w3.org/2000/svg">
<path d="M13.0694 0.561035H11.2027V2.42769H13.0694V0.561035Z" fill="#004A50"/>
<path d="M14.9478 0.561035H13.0811V2.42769H14.9478V0.561035Z" fill="#004A50"/>
<path d="M16.7962 0.561035H14.9296V2.42769H16.7962V0.561035Z" fill="#004A50"/>
<path d="M18.6748 0.561035H16.8082V2.42769H18.6748V0.561035Z" fill="#004A50"/>
<path d="M9.34786 2.42773H7.4812V4.29439H9.34786V2.42773Z" fill="#004A50"/>
<path d="M11.2072 2.42773H9.34058V4.29439H11.2072V2.42773Z" fill="#004A50"/>
<path d="M20.5397 2.42773H18.673V4.29439H20.5397V2.42773Z" fill="#004A50"/>
<path d="M22.3962 2.42773H20.5295V4.29439H22.3962V2.42773Z" fill="#004A50"/>
<path d="M5.60732 4.29492H3.74066V6.16158H5.60732V4.29492Z" fill="#004A50"/>
<path d="M7.46395 4.29492H5.59729V6.16158H7.46395V4.29492Z" fill="#004A50"/>
<path d="M24.2802 4.29492H22.4135V6.16158H24.2802V4.29492Z" fill="#004A50"/>
<path d="M26.1369 4.29492H24.2702V6.16158H26.1369V4.29492Z" fill="#004A50"/>
<path d="M3.74245 6.16113H1.87579V8.02779H3.74245V6.16113Z" fill="#004A50"/>
<path d="M28.0017 6.16113H26.135V8.02779H28.0017V6.16113Z" fill="#004A50"/>
<path d="M3.74245 8.02734H1.87579V9.894H3.74245V8.02734Z" fill="#004A50"/>
<path d="M28.0017 8.02734H26.135V9.894H28.0017V8.02734Z" fill="#004A50"/>
<path d="M1.86666 9.89453H0V11.7612H1.86666V9.89453Z" fill="#004A50"/>
<path d="M29.8775 9.89453H28.0109V11.7612H29.8775V9.89453Z" fill="#004A50"/>
<path d="M1.86666 11.7612H0V13.6279H1.86666V11.7612Z" fill="#004A50"/>
<path d="M8.78463 11.936H6.91797V13.8027H8.78463V11.936Z" fill="#004A50"/>
<path d="M22.3962 11.7612H20.5295V13.6279H22.3962V11.7612Z" fill="#004A50"/>
<path d="M29.8775 11.7612H28.0109V13.6279H29.8775V11.7612Z" fill="#004A50"/>
<path d="M1.86666 13.6279H0V15.4946H1.86666V13.6279Z" fill="#004A50"/>
<path d="M10.5145 13.6279H8.64789V15.4946H10.5145V13.6279Z" fill="#004A50"/>
<path d="M20.5295 13.6274H18.6628V15.4941H20.5295V13.6274Z" fill="#004A50"/>
<path d="M29.8775 13.6279H28.0109V15.4946H29.8775V13.6279Z" fill="#004A50"/>
<path d="M1.86666 15.4941H0V17.3608H1.86666V15.4941Z" fill="#004A50"/>
<path d="M6.91799 13.8027H5.05133V15.6694H6.91799V13.8027Z" fill="#004A50"/>
<path d="M24.2628 13.6274H22.3962V15.4941H24.2628V13.6274Z" fill="#004A50"/>
<path d="M29.8775 15.4941H28.0109V17.3608H29.8775V15.4941Z" fill="#004A50"/>
<path d="M1.86666 17.3608H0V19.2275H1.86666V17.3608Z" fill="#004A50"/>
<path d="M13.0694 17.3608H11.2027V19.2275H13.0694V17.3608Z" fill="#004A50"/>
<path d="M18.6748 17.3608H16.8082V19.2275H18.6748V17.3608Z" fill="#004A50"/>
<path d="M29.8775 17.3608H28.0109V19.2275H29.8775V17.3608Z" fill="#004A50"/>
<path d="M3.74245 19.228H1.87579V21.0947H3.74245V19.228Z" fill="#004A50"/>
<path d="M14.9478 19.228H13.0811V21.0947H14.9478V19.228Z" fill="#004A50"/>
<path d="M16.7962 19.228H14.9296V21.0947H16.7962V19.228Z" fill="#004A50"/>
<path d="M28.0017 19.228H26.135V21.0947H28.0017V19.228Z" fill="#004A50"/>
<path d="M3.74245 21.0947H1.87579V22.9614H3.74245V21.0947Z" fill="#004A50"/>
<path d="M28.0017 21.0947H26.135V22.9614H28.0017V21.0947Z" fill="#004A50"/>
<path d="M5.60732 22.9609H3.74066V24.8276H5.60732V22.9609Z" fill="#004A50"/>
<path d="M7.46395 22.9609H5.59729V24.8276H7.46395V22.9609Z" fill="#004A50"/>
<path d="M24.2802 22.9609H22.4135V24.8276H24.2802V22.9609Z" fill="#004A50"/>
<path d="M26.1369 22.9609H24.2702V24.8276H26.1369V22.9609Z" fill="#004A50"/>
<path d="M9.34786 24.8276H7.4812V26.6943H9.34786V24.8276Z" fill="#004A50"/>
<path d="M11.2072 24.8276H9.34058V26.6943H11.2072V24.8276Z" fill="#004A50"/>
<path d="M20.5369 24.8276H18.6702V26.6943H20.5369V24.8276Z" fill="#004A50"/>
<path d="M22.3962 24.8276H20.5295V26.6943H22.3962V24.8276Z" fill="#004A50"/>
<path d="M13.0694 26.6943H11.2027V28.561H13.0694V26.6943Z" fill="#004A50"/>
<path d="M14.9478 26.6943H13.0811V28.561H14.9478V26.6943Z" fill="#004A50"/>
<path d="M16.7962 26.6943H14.9296V28.561H16.7962V26.6943Z" fill="#004A50"/>
<path d="M18.6748 26.6943H16.8082V28.561H18.6748V26.6943Z" fill="#004A50"/>
</svg>
