<svg width="28" height="27" viewBox="0 0 28 27" fill="none" xmlns="http://www.w3.org/2000/svg">
<path d="M12.2481 0.379883H10.4988V2.12925H12.2481V0.379883Z" fill="#004A50"/>
<path d="M14.0086 0.379883H12.2593V2.12925H14.0086V0.379883Z" fill="#004A50"/>
<path d="M15.7408 0.379883H13.9915V2.12925H15.7408V0.379883Z" fill="#004A50"/>
<path d="M17.5013 0.379883H15.752V2.12925H17.5013V0.379883Z" fill="#004A50"/>
<path d="M8.76059 2.12988H7.01123V3.87925H8.76059V2.12988Z" fill="#004A50"/>
<path d="M10.503 2.12988H8.75366V3.87925H10.503V2.12988Z" fill="#004A50"/>
<path d="M19.2489 2.12988H17.4995V3.87925H19.2489V2.12988Z" fill="#004A50"/>
<path d="M20.9889 2.12988H19.2395V3.87925H20.9889V2.12988Z" fill="#004A50"/>
<path d="M5.25498 3.87891H3.50562V5.62827H5.25498V3.87891Z" fill="#004A50"/>
<path d="M6.99497 3.87891H5.24561V5.62827H6.99497V3.87891Z" fill="#004A50"/>
<path d="M22.7545 3.87891H21.0051V5.62827H22.7545V3.87891Z" fill="#004A50"/>
<path d="M24.4945 3.87891H22.7451V5.62827H24.4945V3.87891Z" fill="#004A50"/>
<path d="M3.50718 5.62793H1.75781V7.37729H3.50718V5.62793Z" fill="#004A50"/>
<path d="M26.2423 5.62793H24.4929V7.37729H26.2423V5.62793Z" fill="#004A50"/>
<path d="M3.50718 7.37695H1.75781V9.12632H3.50718V7.37695Z" fill="#004A50"/>
<path d="M26.2423 7.37695H24.4929V9.12632H26.2423V7.37695Z" fill="#004A50"/>
<path d="M1.74936 9.12695H0V10.8763H1.74936V9.12695Z" fill="#004A50"/>
<path d="M28.0001 9.12695H26.2507V10.8763H28.0001V9.12695Z" fill="#004A50"/>
<path d="M1.74936 10.876H0V12.6253H1.74936V10.876Z" fill="#004A50"/>
<path d="M8.76059 10.876H7.01123V12.6253H8.76059V10.876Z" fill="#004A50"/>
<path d="M20.9889 10.876H19.2395V12.6253H20.9889V10.876Z" fill="#004A50"/>
<path d="M28.0001 10.876H26.2507V12.6253H28.0001V10.876Z" fill="#004A50"/>
<path d="M1.74936 12.626H0V14.3753H1.74936V12.626Z" fill="#004A50"/>
<path d="M8.76059 12.626H7.01123V14.3753H8.76059V12.626Z" fill="#004A50"/>
<path d="M20.9889 12.626H19.2395V14.3753H20.9889V12.626Z" fill="#004A50"/>
<path d="M28.0001 12.626H26.2507V14.3753H28.0001V12.626Z" fill="#004A50"/>
<path d="M1.74936 14.375H0V16.1244H1.74936V14.375Z" fill="#004A50"/>
<path d="M8.76059 14.375H7.01123V16.1244H8.76059V14.375Z" fill="#004A50"/>
<path d="M20.9889 14.375H19.2395V16.1244H20.9889V14.375Z" fill="#004A50"/>
<path d="M28.0001 14.375H26.2507V16.1244H28.0001V14.375Z" fill="#004A50"/>
<path d="M1.74936 16.124H0V17.8734H1.74936V16.124Z" fill="#004A50"/>
<path d="M12.2481 16.124H10.4988V17.8734H12.2481V16.124Z" fill="#004A50"/>
<path d="M17.5013 16.124H15.752V17.8734H17.5013V16.124Z" fill="#004A50"/>
<path d="M28.0001 16.124H26.2507V17.8734H28.0001V16.124Z" fill="#004A50"/>
<path d="M3.50718 17.874H1.75781V19.6234H3.50718V17.874Z" fill="#004A50"/>
<path d="M14.0086 17.874H12.2593V19.6234H14.0086V17.874Z" fill="#004A50"/>
<path d="M15.7408 17.874H13.9915V19.6234H15.7408V17.874Z" fill="#004A50"/>
<path d="M26.2423 17.874H24.4929V19.6234H26.2423V17.874Z" fill="#004A50"/>
<path d="M3.50718 19.623H1.75781V21.3724H3.50718V19.623Z" fill="#004A50"/>
<path d="M26.2423 19.623H24.4929V21.3724H26.2423V19.623Z" fill="#004A50"/>
<path d="M5.25498 21.3721H3.50562V23.1214H5.25498V21.3721Z" fill="#004A50"/>
<path d="M6.99497 21.3721H5.24561V23.1214H6.99497V21.3721Z" fill="#004A50"/>
<path d="M22.7545 21.3721H21.0051V23.1214H22.7545V21.3721Z" fill="#004A50"/>
<path d="M24.4945 21.3721H22.7451V23.1214H24.4945V21.3721Z" fill="#004A50"/>
<path d="M8.76059 23.1211H7.01123V24.8705H8.76059V23.1211Z" fill="#004A50"/>
<path d="M10.503 23.1211H8.75366V24.8705H10.503V23.1211Z" fill="#004A50"/>
<path d="M19.2464 23.1211H17.4971V24.8705H19.2464V23.1211Z" fill="#004A50"/>
<path d="M20.9889 23.1211H19.2395V24.8705H20.9889V23.1211Z" fill="#004A50"/>
<path d="M12.2481 24.8711H10.4988V26.6205H12.2481V24.8711Z" fill="#004A50"/>
<path d="M14.0086 24.8711H12.2593V26.6205H14.0086V24.8711Z" fill="#004A50"/>
<path d="M15.7408 24.8711H13.9915V26.6205H15.7408V24.8711Z" fill="#004A50"/>
<path d="M17.5013 24.8711H15.752V26.6205H17.5013V24.8711Z" fill="#004A50"/>
</svg>
