<svg width="103" height="96" viewBox="0 0 103 96" fill="none" xmlns="http://www.w3.org/2000/svg">
<path d="M45.0904 0H38.6904V6.39997H45.0904V0Z" fill="#004A50"/>
<path d="M51.5308 0H45.1309V6.39997H51.5308V0Z" fill="#004A50"/>
<path d="M57.8682 0H51.4683V6.39997H57.8682V0Z" fill="#004A50"/>
<path d="M64.3092 0H57.9092V6.39997H64.3092V0Z" fill="#004A50"/>
<path d="M32.3309 6.40137H25.9309V12.8013H32.3309V6.40137Z" fill="#004A50"/>
<path d="M38.7061 6.40137H32.3062V12.8013H38.7061V6.40137Z" fill="#004A50"/>
<path d="M70.703 6.40137H64.303V12.8013H70.703V6.40137Z" fill="#004A50"/>
<path d="M77.0682 6.40137H70.6682V12.8013H77.0682V6.40137Z" fill="#004A50"/>
<path d="M19.5064 12.8018H13.1064V19.2017H19.5064V12.8018Z" fill="#004A50"/>
<path d="M25.8719 12.8018H19.4719V19.2017H25.8719V12.8018Z" fill="#004A50"/>
<path d="M83.5277 12.8018H77.1277V19.2017H83.5277V12.8018Z" fill="#004A50"/>
<path d="M89.8934 12.8018H83.4934V19.2017H89.8934V12.8018Z" fill="#004A50"/>
<path d="M13.1126 19.2002H6.71265V25.6002H13.1126V19.2002Z" fill="#004A50"/>
<path d="M96.2869 19.2002H89.887V25.6002H96.2869V19.2002Z" fill="#004A50"/>
<path d="M13.1126 25.5996H6.71265V31.9996H13.1126V25.5996Z" fill="#004A50"/>
<path d="M96.2869 25.5996H89.887V31.9996H96.2869V25.5996Z" fill="#004A50"/>
<path d="M6.68122 32H0.28125V38.4H6.68122V32Z" fill="#004A50"/>
<path d="M102.718 32H96.3184V38.4H102.718V32Z" fill="#004A50"/>
<path d="M6.68122 38.4004H0.28125V44.8004H6.68122V38.4004Z" fill="#004A50"/>
<path d="M30.4 39H24V45.4H30.4V39Z" fill="#004A50"/>
<path d="M77.0682 38.4004H70.6682V44.8004H77.0682V38.4004Z" fill="#004A50"/>
<path d="M102.718 38.4004H96.3184V44.8004H102.718V38.4004Z" fill="#004A50"/>
<path d="M6.68122 44.8008H0.28125V51.2008H6.68122V44.8008Z" fill="#004A50"/>
<path d="M36.3311 44.8008H29.9312V51.2008H36.3311V44.8008Z" fill="#004A50"/>
<path d="M71.4 45H65V51.4H71.4V45Z" fill="#004A50"/>
<path d="M102.718 44.8008H96.3184V51.2008H102.718V44.8008Z" fill="#004A50"/>
<path d="M6.68122 51.1992H0.28125V57.5992H6.68122V51.1992Z" fill="#004A50"/>
<path d="M30.4 51.4004H24V57.8004H30.4V51.4004Z" fill="#004A50"/>
<path d="M77.0682 51.1992H70.6682V57.5992H77.0682V51.1992Z" fill="#004A50"/>
<path d="M102.718 51.1992H96.3184V57.5992H102.718V51.1992Z" fill="#004A50"/>
<path d="M6.68122 57.5986H0.28125V63.9986H6.68122V57.5986Z" fill="#004A50"/>
<path d="M45.0904 57.5986H38.6904V63.9986H45.0904V57.5986Z" fill="#004A50"/>
<path d="M64.3092 57.5986H57.9092V63.9986H64.3092V57.5986Z" fill="#004A50"/>
<path d="M102.718 57.5986H96.3184V63.9986H102.718V57.5986Z" fill="#004A50"/>
<path d="M13.1126 64H6.71265V70.4H13.1126V64Z" fill="#004A50"/>
<path d="M51.5308 64H45.1309V70.4H51.5308V64Z" fill="#004A50"/>
<path d="M57.8682 64H51.4683V70.4H57.8682V64Z" fill="#004A50"/>
<path d="M96.2869 64H89.887V70.4H96.2869V64Z" fill="#004A50"/>
<path d="M13.1126 70.4004H6.71265V76.8004H13.1126V70.4004Z" fill="#004A50"/>
<path d="M96.2869 70.4004H89.887V76.8004H96.2869V70.4004Z" fill="#004A50"/>
<path d="M19.5064 76.7988H13.1064V83.1988H19.5064V76.7988Z" fill="#004A50"/>
<path d="M25.8719 76.7988H19.4719V83.1988H25.8719V76.7988Z" fill="#004A50"/>
<path d="M83.5277 76.7988H77.1277V83.1988H83.5277V76.7988Z" fill="#004A50"/>
<path d="M89.8934 76.7988H83.4934V83.1988H89.8934V76.7988Z" fill="#004A50"/>
<path d="M32.3309 83.1992H25.9309V89.5992H32.3309V83.1992Z" fill="#004A50"/>
<path d="M38.7061 83.1992H32.3062V89.5992H38.7061V83.1992Z" fill="#004A50"/>
<path d="M70.6934 83.1992H64.2935V89.5992H70.6934V83.1992Z" fill="#004A50"/>
<path d="M77.0682 83.1992H70.6682V89.5992H77.0682V83.1992Z" fill="#004A50"/>
<path d="M45.0904 89.5996H38.6904V95.9996H45.0904V89.5996Z" fill="#004A50"/>
<path d="M51.5308 89.5996H45.1309V95.9996H51.5308V89.5996Z" fill="#004A50"/>
<path d="M57.8682 89.5996H51.4683V95.9996H57.8682V89.5996Z" fill="#004A50"/>
<path d="M64.3092 89.5996H57.9092V95.9996H64.3092V89.5996Z" fill="#004A50"/>
</svg>
